<?xml version="1.0" encoding="utf-8"?>
<!-- Generator: Adobe Illustrator 15.1.0, SVG Export Plug-In . SVG Version: 6.00 Build 0)  -->
<!DOCTYPE svg PUBLIC "-//W3C//DTD SVG 1.1//EN" "http://www.w3.org/Graphics/SVG/1.1/DTD/svg11.dtd">
<svg version="1.1"
	 id="Calque_1" xmlns:dc="http://purl.org/dc/elements/1.1/" xmlns:cc="http://creativecommons.org/ns#" xmlns:rdf="http://www.w3.org/1999/02/22-rdf-syntax-ns#" xmlns:svg="http://www.w3.org/2000/svg" xmlns:sodipodi="http://sodipodi.sourceforge.net/DTD/sodipodi-0.dtd" xmlns:inkscape="http://www.inkscape.org/namespaces/inkscape" inkscape:version="0.91 r13725" sodipodi:docname="logo-top-bar.svg"
	 xmlns="http://www.w3.org/2000/svg" xmlns:xlink="http://www.w3.org/1999/xlink" x="0px" y="0px" width="293px" height="98.5px"
	 viewBox="0 3 293 98.5" enable-background="new 0 3 293 98.5" xml:space="preserve">
<sodipodi:namedview  id="namedview75" borderopacity="1" bordercolor="#666666" pagecolor="#ffffff" inkscape:cy="100" inkscape:cx="200.44929" guidetolerance="10" gridtolerance="10" inkscape:zoom="1.668772" objecttolerance="10" showgrid="false" inkscape:window-maximized="1" inkscape:current-layer="g27" inkscape:window-y="24" inkscape:window-x="57" inkscape:window-height="1056" inkscape:window-width="1863" inkscape:pageshadow="2" inkscape:pageopacity="0">
	</sodipodi:namedview>
<g id="g27" transform="translate(0,-90)">
	<path id="path31" inkscape:connector-curvature="0" fill="#FFFFFF" d="M28.809,127.567c-1.036,0-1.831,0.814-1.831,1.832
		c0,0.987,0.795,1.831,1.831,1.831c1.028,0,1.827-0.844,1.827-1.831C30.636,128.381,29.837,127.567,28.809,127.567z M36.138,120.238
		c-1.028,0-1.827,0.814-1.827,1.828c0,1.004,0.799,1.845,1.827,1.845c1.017,0,1.828-0.841,1.828-1.845
		C37.965,121.053,37.155,120.238,36.138,120.238z M39.796,127.567c-1.021,0-1.831,0.814-1.831,1.832c0,0.987,0.81,1.831,1.831,1.831
		c1.028,0,1.831-0.844,1.831-1.831C41.627,128.381,40.824,127.567,39.796,127.567z M47.129,123.913
		c-1.028,0-1.832,0.795-1.832,1.832c0,0.983,0.803,1.824,1.832,1.824c1.027,0,1.831-0.841,1.831-1.824
		C48.959,124.708,48.156,123.913,47.129,123.913z M81.573,121.417c-0.836-0.92-1.797-1.76-2.743-2.534l-6.09,4.477
		c1.02,0.724,1.943,1.539,2.825,2.45c0.841,0.878,1.61,1.802,2.334,2.823l6.012-4.398C83.216,123.244,82.419,122.299,81.573,121.417
		z M39.796,127.567c-1.021,0-1.831,0.814-1.831,1.832c0,0.987,0.81,1.831,1.831,1.831c1.028,0,1.831-0.844,1.831-1.831
		C41.627,128.381,40.824,127.567,39.796,127.567z M28.809,127.567c-1.036,0-1.831,0.814-1.831,1.832
		c0,0.987,0.795,1.831,1.831,1.831c1.028,0,1.827-0.844,1.827-1.831C30.636,128.381,29.837,127.567,28.809,127.567z M47.129,123.913
		c-1.028,0-1.832,0.795-1.832,1.832c0,0.983,0.803,1.824,1.832,1.824c1.027,0,1.831-0.841,1.831-1.824
		C48.959,124.708,48.156,123.913,47.129,123.913z M36.138,120.238c-1.028,0-1.827,0.814-1.827,1.828
		c0,1.004,0.799,1.845,1.827,1.845c1.017,0,1.828-0.841,1.828-1.845C37.965,121.053,37.155,120.238,36.138,120.238z M28.809,127.567
		c-1.036,0-1.831,0.814-1.831,1.832c0,0.987,0.795,1.831,1.831,1.831c1.028,0,1.827-0.844,1.827-1.831
		C30.636,128.381,29.837,127.567,28.809,127.567z M36.138,120.238c-1.028,0-1.827,0.814-1.827,1.828
		c0,1.004,0.799,1.845,1.827,1.845c1.017,0,1.828-0.841,1.828-1.845C37.965,121.053,37.155,120.238,36.138,120.238z M39.796,127.567
		c-1.021,0-1.831,0.814-1.831,1.832c0,0.987,0.81,1.831,1.831,1.831c1.028,0,1.831-0.844,1.831-1.831
		C41.627,128.381,40.824,127.567,39.796,127.567z M47.129,123.913c-1.028,0-1.832,0.795-1.832,1.832
		c0,0.983,0.803,1.824,1.832,1.824c1.027,0,1.831-0.841,1.831-1.824C48.959,124.708,48.156,123.913,47.129,123.913z"/>
	<path id="path35" inkscape:connector-curvature="0" fill="#FFFFFF" d="M88.166,121.12l-4.255,3.115l-6,4.398
		c-0.737-1.021-1.506-1.941-2.35-2.823c-0.878-0.916-1.802-1.727-2.822-2.454l6.083-4.473l4.979-3.662
		c1.654-1.209,3.929-0.844,5.138,0.77C90.143,117.646,89.775,119.95,88.166,121.12z"/>
	<path id="path37" inkscape:connector-curvature="0" fill="#FFFFFF" d="M92.93,148.971c-0.112-2.487-1.092-4.836-2.717-6.663
		c5.86-4.661,9.606-11.847,9.606-19.904c0-13.996-11.412-25.433-25.434-25.433c-9.272,0-17.359,4.989-21.757,12.383
		c-1.104-0.072-2.207-0.102-3.31-0.102c-21.208,0-40.519,11.434-40.661,32.065c-2.162,1.928-3.528,4.686-3.671,7.653
		c-0.142,2.927,0.883,5.747,2.827,7.88c-1.685,1.869-2.683,4.253-2.827,6.772c-0.142,3.404,1.248,6.64,3.776,8.831
		c-0.875,8.06,2.608,13.485,10.552,13.743c4.581,0.03,57.089,0,59.284-0.044c7.145-0.256,11.54-5.122,10.522-13.655
		c2.556-2.206,3.948-5.472,3.809-8.875c-0.149-2.521-1.177-4.905-2.792-6.772C92.052,154.716,93.07,151.897,92.93,148.971z
		 M48.959,116.58h0.694c-0.477,1.861-0.694,3.805-0.694,5.823c0,9.566,5.314,17.915,13.12,22.242
		c-0.072,0.041-0.188,0.041-0.264,0.041c-3.989,0.029-7.579-6.083-12.856-6.124c-1.096,0-32.979,0-32.979,0
		C18.693,122.998,34.559,116.651,48.959,116.58z M78.421,178.825c-2.129,0.046-54.415,0.075-58.962,0.046
		c-2.522-0.116-3.399-0.773-3.512-3.673c24.3,0.303,65.99,0.145,65.99,0.145C81.794,177.843,80.905,178.725,78.421,178.825z
		 M81.967,167.876H16.022c-2.425-0.066-3.776-1.944-3.705-3.88c0.075-1.731,1.392-3.268,3.37-3.449c0,0,5.283,0,6.848,0
		c1.877,0,3.122,1.063,4.184,1.718c2.744,1.769,5.054,3.741,9.418,3.771c3.876,0.046,6.447-1.901,9.711-3.8
		c1.134-0.658,2.814-1.689,4.763-1.689c5.895-0.041,31.502,0,31.588,0c1.973,0.146,3.293,1.718,3.396,3.449
		C85.669,165.895,84.356,167.722,81.967,167.876z M81.967,153.222c0,0-26.811,0-32.197,0c-5.242,0-10.05,6.076-13.602,6.113
		c-3.994,0-7.577-6.082-12.861-6.113c-3.556-0.045-7.286,0-7.286,0c-2.425-0.075-3.776-1.947-3.705-3.891
		c0.116-1.789,1.543-3.438,3.705-3.438h32.166c1.873,0,3.122,1.097,4.18,1.755c2.747,1.721,5.051,3.703,9.418,3.74
		c3.85,0.03,6.405-1.826,9.628-3.771c0.957,0.146,1.985,0.22,2.973,0.22c3.152,0,6.188-0.585,8.975-1.688
		c1.321,0.512,2.161,1.832,2.233,3.183C85.669,151.246,84.356,153.073,81.967,153.222L81.967,153.222z M88.379,133.838
		c-3.295,4.068-8.345,6.667-13.993,6.667c-1.317,0-2.638-0.15-3.888-0.442c-5.167-1.1-9.485-4.435-11.932-8.909
		c-0.594-1.058-1.073-2.116-1.438-3.295c-0.547-1.726-0.841-3.55-0.841-5.456v-0.337c0.031-1.712,0.293-3.363,0.77-4.901
		c0.77-2.488,2.086-4.796,3.776-6.705c3.295-3.778,8.169-6.158,13.554-6.158c9.97,0,18.102,8.143,18.102,18.101
		C92.488,126.757,90.947,130.719,88.379,133.838z"/>
	<path id="path41" inkscape:connector-curvature="0" fill="#FFFFFF" d="M88.166,121.12l-4.255,3.115l-6,4.398l-5.242,3.845
		c-0.627,0.478-1.393,0.695-2.166,0.695c-0.986,0-1.979-0.406-2.677-1.172l-6.847-7.399c-1.388-1.501-1.283-3.813,0.188-5.164
		c0.51-0.519,1.17-0.811,1.827-0.92c1.208-0.221,2.488,0.146,3.37,1.1l0.184,0.184l4.433,4.836l1.76-1.283l6.083-4.473l4.98-3.662
		c1.654-1.209,3.929-0.844,5.138,0.77C90.143,117.646,89.775,119.95,88.166,121.12L88.166,121.12z"/>
</g>
<g id="g43" transform="translate(111.4592,-94.79394)">
	<path id="path45" inkscape:connector-curvature="0" fill="#FFFFFF" d="M27.258,116.754c0.334,0.35,0.505,0.793,0.505,1.328v25.613
		c0,0.592-0.188,1.086-0.57,1.474c-0.381,0.397-0.866,0.593-1.459,0.593c-0.309,0-0.609-0.045-0.9-0.149
		c-0.3-0.097-0.533-0.244-0.701-0.444L7.551,123.573v20.335c0,0.535-0.177,0.974-0.527,1.332c-0.354,0.347-0.797,0.523-1.329,0.523
		c-0.536,0-0.974-0.176-1.309-0.523c-0.339-0.358-0.505-0.797-0.505-1.332v-25.656c0-0.592,0.188-1.074,0.566-1.455
		c0.381-0.381,0.851-0.57,1.413-0.57c0.339,0,0.662,0.065,0.974,0.189c0.308,0.127,0.546,0.304,0.716,0.531l16.539,21.645v-20.508
		c0-0.535,0.177-0.978,0.527-1.328c0.354-0.351,0.797-0.528,1.331-0.528C26.48,116.227,26.918,116.405,27.258,116.754z"/>
	<path id="path47" inkscape:connector-curvature="0" fill="#FFFFFF" d="M53.714,140.615c-0.985,1.745-2.333,3.112-4.035,4.093
		c-1.701,0.986-3.579,1.475-5.632,1.475s-3.931-0.489-5.633-1.475c-1.702-0.982-3.045-2.349-4.026-4.093
		c-0.985-1.74-1.479-3.714-1.479-5.904c0-2.194,0.493-4.177,1.479-5.953c0.982-1.775,2.326-3.153,4.026-4.135
		c1.703-0.986,3.581-1.475,5.633-1.475s3.931,0.489,5.632,1.475c1.703,0.981,3.051,2.36,4.035,4.135
		c0.982,1.775,1.475,3.758,1.475,5.953C55.189,136.901,54.696,138.875,53.714,140.615z M50.226,130.641
		c-0.631-1.202-1.485-2.128-2.571-2.788c-1.078-0.662-2.283-0.993-3.607-0.993c-1.321,0-2.522,0.331-3.608,0.993
		c-1.086,0.659-1.939,1.586-2.571,2.788c-0.635,1.189-0.952,2.548-0.952,4.069c0,1.489,0.317,2.821,0.952,4.003
		c0.632,1.182,1.485,2.102,2.571,2.768c1.086,0.662,2.287,0.99,3.608,0.99c1.324,0,2.528-0.327,3.607-0.99
		c1.086-0.666,1.94-1.586,2.571-2.768c0.639-1.182,0.955-2.515,0.955-4.003C51.181,133.189,50.864,131.831,50.226,130.641z"/>
	<path id="path49" inkscape:connector-curvature="0" fill="#FFFFFF" d="M65.817,127.577v12.572c0,1.41,0.64,2.111,1.902,2.111
		c0.192,0,0.462-0.051,0.801-0.146c0.339-0.1,0.605-0.15,0.802-0.15c0.365,0,0.674,0.158,0.932,0.469
		c0.254,0.309,0.377,0.7,0.377,1.182c0,0.589-0.339,1.094-1.013,1.517c-0.673,0.419-1.437,0.632-2.279,0.632
		c-0.927,0-1.778-0.1-2.552-0.293c-0.773-0.197-1.463-0.7-2.067-1.502c-0.605-0.8-0.905-2.016-0.905-3.65v-12.742h-2.449
		c-0.538,0-0.978-0.177-1.332-0.524c-0.354-0.357-0.523-0.797-0.523-1.332c0-0.535,0.169-0.974,0.523-1.305
		c0.355-0.339,0.795-0.513,1.332-0.513h2.449v-3.541c0-0.562,0.185-1.042,0.565-1.433c0.382-0.395,0.867-0.592,1.455-0.592
		c0.566,0,1.036,0.197,1.417,0.592c0.378,0.39,0.565,0.871,0.565,1.433v3.541h3.504c0.535,0,0.978,0.178,1.332,0.532
		c0.351,0.351,0.522,0.797,0.522,1.325c0,0.536-0.172,0.974-0.522,1.313c-0.354,0.339-0.798,0.505-1.332,0.505L65.817,127.577
		L65.817,127.577z"/>
	<path id="path51" inkscape:connector-curvature="0" fill="#FFFFFF" d="M105.464,124.035c0.377,0.396,0.57,0.873,0.57,1.432v18.229
		c0,3.516-0.975,6.148-2.91,7.892c-1.944,1.741-4.505,2.615-7.682,2.615c-1.042,0-2.071-0.097-3.084-0.293
		c-1.013-0.2-1.84-0.466-2.486-0.808c-1.039-0.478-1.563-1.125-1.563-1.937c0-0.144,0.031-0.322,0.085-0.551
		c0.17-0.478,0.408-0.843,0.717-1.094c0.313-0.254,0.661-0.381,1.056-0.381c0.222,0,0.438,0.042,0.634,0.126
		c0.871,0.393,1.644,0.7,2.321,0.928c0.679,0.224,1.46,0.339,2.364,0.339c4.359,0,6.537-2.236,6.537-6.71v-0.848
		c-0.759,1.013-1.736,1.806-2.93,2.364c-1.202,0.563-2.568,0.843-4.116,0.843c-2.333,0-4.158-0.743-5.467-2.237
		c-1.309-1.49-1.959-3.442-1.959-5.863v-12.616c0-0.589,0.181-1.074,0.546-1.456c0.365-0.377,0.847-0.569,1.437-0.569
		c0.589,0,1.077,0.196,1.456,0.593c0.381,0.395,0.569,0.873,0.569,1.432v11.561c0,1.854,0.408,3.229,1.223,4.111
		c0.816,0.889,2.056,1.332,3.713,1.332c1.601,0,2.929-0.508,3.964-1.521c1.04-1.013,1.563-2.318,1.563-3.922v-11.561
		c0-0.589,0.185-1.074,0.547-1.456c0.369-0.377,0.846-0.569,1.439-0.569C104.594,123.442,105.083,123.638,105.464,124.035
		L105.464,124.035z"/>
	<path id="path53" inkscape:connector-curvature="0" fill="#FFFFFF" d="M131.219,140.615c-0.985,1.745-2.328,3.112-4.03,4.093
		c-1.697,0.986-3.575,1.475-5.632,1.475c-2.058,0-3.928-0.489-5.634-1.475c-1.698-0.982-3.045-2.349-4.029-4.093
		c-0.982-1.74-1.476-3.714-1.476-5.904c0-2.194,0.493-4.177,1.476-5.953c0.985-1.775,2.332-3.153,4.029-4.135
		c1.705-0.986,3.576-1.475,5.634-1.475c2.057,0,3.935,0.489,5.632,1.475c1.702,0.981,3.046,2.36,4.03,4.135
		c0.99,1.775,1.482,3.758,1.482,5.953C132.701,136.901,132.209,138.875,131.219,140.615z M127.739,130.641
		c-0.632-1.202-1.494-2.128-2.575-2.788c-1.078-0.662-2.279-0.993-3.607-0.993c-1.321,0-2.527,0.331-3.608,0.993
		c-1.081,0.659-1.939,1.586-2.571,2.788c-0.635,1.189-0.952,2.548-0.952,4.069c0,1.489,0.317,2.821,0.952,4.003
		c0.632,1.182,1.49,2.102,2.571,2.768c1.081,0.662,2.287,0.99,3.608,0.99c1.328,0,2.528-0.327,3.607-0.99
		c1.081-0.666,1.943-1.586,2.575-2.768c0.635-1.182,0.951-2.515,0.951-4.003C128.69,133.189,128.374,131.831,127.739,130.641
		L127.739,130.641z"/>
	<path id="path55" inkscape:connector-curvature="0" fill="#FFFFFF" d="M155.247,124.246c0.381,0.393,0.577,0.875,0.577,1.432
		v11.223c0,2.929-0.813,5.201-2.43,6.814c-1.624,1.621-3.903,2.429-6.856,2.429c-2.93,0-5.188-0.808-6.795-2.429
		c-1.605-1.613-2.407-3.885-2.407-6.814v-11.223c0-0.558,0.193-1.04,0.571-1.432c0.376-0.396,0.85-0.593,1.415-0.593
		c0.589,0,1.078,0.197,1.452,0.593c0.381,0.393,0.574,0.875,0.574,1.432v11.223c0,3.684,1.725,5.531,5.188,5.531
		c1.718,0,3.022-0.469,3.923-1.393c0.901-0.932,1.352-2.31,1.352-4.138v-11.223c0-0.558,0.185-1.04,0.565-1.432
		c0.382-0.396,0.855-0.593,1.421-0.593C154.385,123.653,154.864,123.85,155.247,124.246L155.247,124.246z"/>
	<path id="path57" inkscape:connector-curvature="0" fill="#FFFFFF" d="M174.719,123.714c0.536,0.382,0.801,0.855,0.801,1.413
		c0,0.678-0.173,1.193-0.522,1.544c-0.353,0.351-0.782,0.523-1.287,0.523c-0.257,0-0.634-0.081-1.14-0.25
		c-0.594-0.197-1.06-0.297-1.394-0.297c-0.87,0-1.721,0.305-2.557,0.905c-0.827,0.608-1.501,1.437-2.026,2.495
		c-0.519,1.055-0.78,2.226-0.78,3.522v10.167c0,0.565-0.185,1.042-0.565,1.432c-0.378,0.397-0.863,0.593-1.46,0.593
		c-0.585,0-1.069-0.193-1.428-0.57c-0.37-0.382-0.551-0.867-0.551-1.455v-18.061c0-0.558,0.193-1.039,0.57-1.432
		c0.381-0.396,0.851-0.593,1.408-0.593c0.597,0,1.082,0.197,1.46,0.593c0.381,0.393,0.565,0.875,0.565,1.432v2.156
		c0.623-1.378,1.552-2.499,2.787-3.357c1.24-0.858,2.649-1.301,4.224-1.328C173.556,123.149,174.185,123.333,174.719,123.714
		L174.719,123.714z"/>
	<path id="path59" inkscape:connector-curvature="0" fill="#FFFFFF" d="M3.08,182.345c-0.4,0.394-0.878,0.59-1.437,0.59
		c-0.566,0-1.035-0.198-1.412-0.59c-0.382-0.394-0.57-0.87-0.57-1.433v-27.176c0-0.562,0.197-1.039,0.589-1.437
		c0.393-0.39,0.874-0.588,1.436-0.588c0.563,0,1.032,0.2,1.413,0.588c0.382,0.397,0.57,0.875,0.57,1.437v27.176
		C3.67,181.476,3.473,181.951,3.08,182.345z"/>
	<path id="path61" inkscape:connector-curvature="0" fill="#FFFFFF" d="M29.387,161.097c0.381,0.383,0.565,0.883,0.565,1.503v18.314
		c0,0.562-0.184,1.037-0.565,1.433c-0.382,0.392-0.867,0.588-1.459,0.588c-0.584,0-1.066-0.193-1.432-0.567
		c-0.366-0.381-0.547-0.868-0.547-1.453v-1.102c-0.731,0.989-1.732,1.819-2.995,2.51c-1.266,0.693-2.634,1.039-4.097,1.039
		c-1.913,0-3.65-0.497-5.212-1.481c-1.555-0.983-2.779-2.355-3.665-4.111c-0.89-1.76-1.332-3.738-1.332-5.93
		c0-2.194,0.442-4.174,1.332-5.933c0.886-1.755,2.102-3.124,3.65-4.112c1.544-0.981,3.245-1.475,5.101-1.475
		c1.495,0,2.875,0.309,4.163,0.924c1.278,0.623,2.294,1.409,3.056,2.369v-1.015c0-0.592,0.181-1.085,0.547-1.478
		c0.366-0.394,0.847-0.59,1.432-0.59C28.52,160.532,29.005,160.72,29.387,161.097z M22.846,178.631
		c1.027-0.674,1.824-1.603,2.406-2.789c0.574-1.174,0.866-2.51,0.866-4.003c0-1.463-0.292-2.784-0.866-3.965
		c-0.582-1.186-1.379-2.121-2.406-2.807c-1.025-0.69-2.202-1.036-3.527-1.036c-1.317,0-2.494,0.339-3.519,1.013
		c-1.028,0.675-1.833,1.606-2.406,2.787c-0.578,1.184-0.866,2.52-0.866,4.009c0,1.494,0.289,2.83,0.866,4.004
		c0.574,1.185,1.378,2.115,2.406,2.787c1.025,0.674,2.202,1.013,3.519,1.013C20.644,179.644,21.821,179.305,22.846,178.631z"/>
	<path id="path63" inkscape:connector-curvature="0" fill="#FFFFFF" d="M34.26,178.338c0-0.567,0.296-1.045,0.885-1.433
		c0.282-0.205,0.605-0.3,0.971-0.3c0.505,0,0.97,0.211,1.39,0.63c0.847,0.958,1.755,1.678,2.726,2.155
		c0.97,0.478,2.129,0.713,3.479,0.713c1.07-0.022,2.01-0.271,2.827-0.735c0.816-0.462,1.225-1.217,1.225-2.256
		c0-0.954-0.416-1.689-1.248-2.193c-0.828-0.509-2.044-0.971-3.651-1.396c-1.571-0.42-2.879-0.862-3.923-1.33
		c-1.038-0.464-1.921-1.138-2.637-2.025c-0.716-0.882-1.078-2.045-1.078-3.48c0-1.263,0.361-2.372,1.078-3.33
		c0.716-0.956,1.674-1.702,2.872-2.237c1.193-0.53,2.493-0.801,3.903-0.801c1.347,0,2.692,0.253,4.027,0.755
		c1.339,0.511,2.425,1.286,3.272,2.325c0.335,0.396,0.504,0.801,0.504,1.224c0,0.451-0.223,0.881-0.673,1.306
		c-0.284,0.258-0.636,0.381-1.055,0.381c-0.508,0-0.916-0.167-1.224-0.505c-0.593-0.673-1.318-1.197-2.172-1.563
		c-0.862-0.365-1.811-0.55-2.85-0.55c-1.069,0-1.978,0.22-2.721,0.657c-0.75,0.435-1.12,1.172-1.12,2.213
		c0.031,0.982,0.454,1.715,1.286,2.192s2.102,0.945,3.819,1.394c1.494,0.396,2.729,0.816,3.715,1.269
		c0.986,0.448,1.814,1.118,2.491,2.006c0.674,0.882,1.009,2.045,1.009,3.48c0,1.322-0.378,2.465-1.14,3.438
		c-0.76,0.967-1.748,1.709-2.973,2.237c-1.224,0.516-2.526,0.781-3.904,0.781c-1.772,0-3.41-0.316-4.912-0.933
		c-1.51-0.615-2.781-1.604-3.819-2.955C34.387,179.085,34.26,178.704,34.26,178.338z"/>
	<path id="path65" inkscape:connector-curvature="0" fill="#FFFFFF" d="M62.022,164.751v12.574c0,1.404,0.631,2.106,1.901,2.106
		c0.192,0,0.463-0.048,0.801-0.147c0.339-0.101,0.604-0.146,0.801-0.146c0.366,0,0.674,0.155,0.932,0.464
		c0.246,0.311,0.378,0.704,0.378,1.185c0,0.588-0.339,1.094-1.018,1.513c-0.669,0.425-1.431,0.636-2.273,0.636
		c-0.928,0-1.779-0.101-2.554-0.291c-0.773-0.197-1.463-0.702-2.071-1.499c-0.601-0.803-0.904-2.021-0.904-3.651v-12.742h-2.445
		c-0.54,0-0.979-0.174-1.332-0.528c-0.354-0.349-0.523-0.797-0.523-1.332c0-0.53,0.17-0.965,0.523-1.304
		c0.354-0.343,0.793-0.511,1.332-0.511h2.445v-3.542c0-0.559,0.188-1.035,0.569-1.433c0.382-0.396,0.866-0.593,1.456-0.593
		c0.562,0,1.035,0.196,1.412,0.593c0.381,0.397,0.57,0.874,0.57,1.433v3.542h3.502c0.532,0,0.979,0.181,1.332,0.53
		c0.347,0.355,0.524,0.797,0.524,1.332s-0.178,0.965-0.524,1.304c-0.354,0.339-0.801,0.509-1.332,0.509H62.022L62.022,164.751z"/>
	<path id="path67" inkscape:connector-curvature="0" fill="#FFFFFF" d="M116.498,169.645v11.27c0,0.585-0.186,1.072-0.551,1.453
		c-0.362,0.374-0.848,0.567-1.433,0.567c-0.593,0-1.081-0.196-1.458-0.588c-0.382-0.396-0.566-0.871-0.566-1.433v-11.228
		c0-3.684-1.553-5.523-4.644-5.523c-1.093,0-2.09,0.246-2.977,0.732c-0.885,0.494-1.574,1.161-2.067,2.004
		c-0.492,0.843-0.739,1.776-0.739,2.787v11.228c0,0.562-0.185,1.037-0.565,1.433c-0.381,0.392-0.87,0.588-1.46,0.588
		c-0.584,0-1.068-0.193-1.436-0.567c-0.361-0.381-0.55-0.868-0.55-1.453v-11.27c0-1.66-0.347-2.991-1.052-3.987
		c-0.704-0.997-1.867-1.494-3.502-1.494c-1.661,0-3.026,0.523-4.111,1.574c-1.087,1.061-1.627,2.361-1.627,3.909v11.268
		c0,0.562-0.191,1.039-0.569,1.433c-0.377,0.393-0.866,0.59-1.455,0.59c-0.593,0-1.069-0.193-1.437-0.567
		c-0.365-0.381-0.547-0.87-0.547-1.455v-18.063c0-0.562,0.189-1.039,0.566-1.433c0.386-0.393,0.854-0.593,1.417-0.593
		c0.589,0,1.078,0.2,1.455,0.593c0.378,0.394,0.569,0.871,0.569,1.433v1.475c0.732-1.094,1.71-2.014,2.935-2.76
		c1.221-0.744,2.549-1.121,3.988-1.121c3.483,0,5.751,1.548,6.796,4.644c0.616-1.183,1.644-2.248,3.072-3.206
		c1.44-0.951,2.956-1.438,4.562-1.438C114.03,160.442,116.498,163.512,116.498,169.645L116.498,169.645z"/>
	<path id="path69" inkscape:connector-curvature="0" fill="#FFFFFF" d="M141.264,172.323c-0.396,0.353-0.858,0.528-1.394,0.528
		h-14.85c0.198,2.052,0.979,3.696,2.342,4.935c1.358,1.239,3.026,1.855,4.999,1.855c1.349,0,2.446-0.196,3.289-0.588
		c0.843-0.395,1.594-0.902,2.236-1.519c0.428-0.252,0.828-0.381,1.228-0.381c0.474,0,0.874,0.171,1.197,0.506
		c0.323,0.339,0.49,0.735,0.49,1.182c0,0.59-0.289,1.125-0.844,1.603c-0.82,0.819-1.9,1.507-3.249,2.065
		c-1.355,0.566-2.733,0.852-4.139,0.852c-2.274,0-4.28-0.481-6.013-1.439c-1.731-0.96-3.068-2.296-4.004-4.004
		c-0.947-1.718-1.416-3.661-1.416-5.825c0-2.364,0.485-4.438,1.459-6.226c0.966-1.786,2.252-3.157,3.835-4.112
		c1.593-0.958,3.299-1.436,5.127-1.436c1.803,0,3.488,0.462,5.067,1.394c1.574,0.925,2.841,2.206,3.796,3.839
		c0.959,1.632,1.451,3.461,1.479,5.484C141.871,171.542,141.656,171.974,141.264,172.323L141.264,172.323z M127.47,165.363
		c-1.155,0.885-1.913,2.258-2.283,4.111h12.449v-0.339c-0.146-1.49-0.811-2.714-2.004-3.668c-1.193-0.959-2.549-1.437-4.074-1.437
		C129.988,164.031,128.621,164.474,127.47,165.363z"/>
	<path id="path71" inkscape:connector-curvature="0" fill="#FFFFFF" d="M166.092,161.097c0.381,0.383,0.573,0.883,0.573,1.503
		v18.314c0,0.562-0.192,1.037-0.573,1.433c-0.377,0.392-0.862,0.588-1.456,0.588c-0.588,0-1.065-0.193-1.432-0.567
		c-0.365-0.381-0.546-0.868-0.546-1.453v-1.102c-0.731,0.989-1.733,1.819-2.999,2.51c-1.266,0.693-2.63,1.039-4.093,1.039
		c-1.914,0-3.649-0.497-5.213-1.481c-1.56-0.983-2.78-2.355-3.669-4.111c-0.886-1.76-1.328-3.738-1.328-5.93
		c0-2.194,0.441-4.174,1.328-5.933c0.889-1.755,2.106-3.124,3.649-4.112c1.553-0.981,3.246-1.475,5.109-1.475
		c1.49,0,2.873,0.309,4.154,0.924c1.282,0.623,2.303,1.409,3.061,2.369v-1.015c0-0.592,0.181-1.085,0.546-1.478
		c0.366-0.394,0.843-0.59,1.432-0.59C165.23,160.532,165.715,160.72,166.092,161.097z M159.555,178.631
		c1.028-0.674,1.828-1.603,2.406-2.789c0.573-1.174,0.862-2.51,0.862-4.003c0-1.463-0.289-2.784-0.862-3.965
		c-0.578-1.186-1.378-2.121-2.406-2.807c-1.029-0.69-2.202-1.036-3.526-1.036c-1.317,0-2.495,0.339-3.523,1.013
		c-1.021,0.675-1.824,1.606-2.398,2.787c-0.581,1.184-0.871,2.52-0.871,4.009c0,1.494,0.289,2.83,0.871,4.004
		c0.574,1.185,1.378,2.115,2.398,2.787c1.028,0.674,2.206,1.013,3.523,1.013C157.353,179.644,158.526,179.305,159.555,178.631z"/>
	<path id="path73" inkscape:connector-curvature="0" fill="#FFFFFF" d="M176.366,182.345c-0.393,0.394-0.866,0.59-1.433,0.59
		c-0.565,0-1.03-0.198-1.412-0.59c-0.382-0.394-0.57-0.87-0.57-1.433v-27.176c0-0.562,0.193-1.039,0.589-1.437
		c0.396-0.39,0.87-0.588,1.437-0.588c0.562,0,1.035,0.2,1.416,0.588c0.378,0.397,0.566,0.875,0.566,1.437v27.176
		C176.959,181.476,176.764,181.951,176.366,182.345z"/>
</g>
</svg>
