<?xml version="1.0" encoding="utf-8"?>
<!-- Generator: Adobe Illustrator 15.1.0, SVG Export Plug-In . SVG Version: 6.00 Build 0)  -->
<!DOCTYPE svg PUBLIC "-//W3C//DTD SVG 1.1//EN" "http://www.w3.org/Graphics/SVG/1.1/DTD/svg11.dtd">
<svg version="1.1" id="Calque_1" xmlns="http://www.w3.org/2000/svg" xmlns:xlink="http://www.w3.org/1999/xlink" x="0px" y="0px"
	 width="200px" height="200px" viewBox="0 0 200 200" enable-background="new 0 0 200 200" xml:space="preserve">
<g>
	<g>
		<path fill-rule="evenodd" clip-rule="evenodd" fill="#558C89" d="M327.494-3.985c-1.054,0-1.87,0.828-1.87,1.869
			c0,1.008,0.816,1.869,1.87,1.869c1.05,0,1.867-0.861,1.867-1.869C329.361-3.157,328.544-3.985,327.494-3.985z M334.979-11.472
			c-1.052,0-1.868,0.829-1.868,1.87c0,1.019,0.816,1.879,1.868,1.879c1.04,0,1.868-0.86,1.868-1.879
			C336.848-10.643,336.02-11.472,334.979-11.472z M338.717-3.985c-1.042,0-1.869,0.828-1.869,1.869c0,1.008,0.827,1.869,1.869,1.869
			c1.051,0,1.868-0.861,1.868-1.869C340.585-3.157,339.768-3.985,338.717-3.985z M346.202-7.723c-1.051,0-1.869,0.817-1.869,1.868
			c0,1.01,0.818,1.869,1.869,1.869c1.052,0,1.869-0.859,1.869-1.869C348.071-6.905,347.254-7.723,346.202-7.723z M381.379-10.271
			c-0.859-0.933-1.838-1.794-2.803-2.579l-6.223,4.566c1.051,0.742,1.986,1.57,2.888,2.504c0.862,0.893,1.645,1.838,2.39,2.878
			l6.136-4.491C383.056-8.401,382.239-9.368,381.379-10.271z M338.717-3.985c-1.042,0-1.869,0.828-1.869,1.869
			c0,1.008,0.827,1.869,1.869,1.869c1.051,0,1.868-0.861,1.868-1.869C340.585-3.157,339.768-3.985,338.717-3.985z M327.494-3.985
			c-1.054,0-1.87,0.828-1.87,1.869c0,1.008,0.816,1.869,1.87,1.869c1.05,0,1.867-0.861,1.867-1.869
			C329.361-3.157,328.544-3.985,327.494-3.985z M346.202-7.723c-1.051,0-1.869,0.817-1.869,1.868c0,1.01,0.818,1.869,1.869,1.869
			c1.052,0,1.869-0.859,1.869-1.869C348.071-6.905,347.254-7.723,346.202-7.723z M334.979-11.472c-1.052,0-1.868,0.829-1.868,1.87
			c0,1.019,0.816,1.879,1.868,1.879c1.04,0,1.868-0.86,1.868-1.879C336.848-10.643,336.02-11.472,334.979-11.472z M327.494-3.985
			c-1.054,0-1.87,0.828-1.87,1.869c0,1.008,0.816,1.869,1.87,1.869c1.05,0,1.867-0.861,1.867-1.869
			C329.361-3.157,328.544-3.985,327.494-3.985z M334.979-11.472c-1.052,0-1.868,0.829-1.868,1.87c0,1.019,0.816,1.879,1.868,1.879
			c1.04,0,1.868-0.86,1.868-1.879C336.848-10.643,336.02-11.472,334.979-11.472z M338.717-3.985c-1.042,0-1.869,0.828-1.869,1.869
			c0,1.008,0.827,1.869,1.869,1.869c1.051,0,1.868-0.861,1.868-1.869C340.585-3.157,339.768-3.985,338.717-3.985z M346.202-7.723
			c-1.051,0-1.869,0.817-1.869,1.868c0,1.01,0.818,1.869,1.869,1.869c1.052,0,1.869-0.859,1.869-1.869
			C348.071-6.905,347.254-7.723,346.202-7.723z"/>
	</g>
	<g>
		<path fill="#558C89" d="M388.112-10.57L383.77-7.39L377.635-2.9c-0.749-1.047-1.535-1.983-2.397-2.88
			c-0.897-0.938-1.834-1.762-2.879-2.507l6.212-4.567l5.088-3.74c1.683-1.236,4.006-0.861,5.24,0.784
			C390.133-14.124,389.757-11.769,388.112-10.57z"/>
		<path fill="#558C89" d="M392.974,17.867c-0.105-2.538-1.113-4.939-2.771-6.807c5.988-4.758,9.811-12.094,9.811-20.322
			c0-14.293-11.649-25.972-25.973-25.972c-9.471,0-17.729,5.097-22.222,12.645c-1.126-0.073-2.251-0.105-3.377-0.105
			c-21.66,0-41.379,11.68-41.525,32.746c-2.209,1.975-3.601,4.788-3.749,7.815c-0.147,2.992,0.902,5.871,2.888,8.048
			c-1.719,1.911-2.739,4.343-2.888,6.921c-0.147,3.474,1.275,6.775,3.854,9.015c-0.892,8.229,2.665,13.772,10.778,14.039
			c4.68,0.03,58.303,0,60.541-0.044c7.295-0.264,11.786-5.235,10.745-13.951c2.611-2.252,4.036-5.585,3.887-9.059
			c-0.147-2.578-1.199-5.01-2.846-6.921C392.082,23.738,393.123,20.859,392.974,17.867z M348.071-15.207h0.711
			c-0.489,1.899-0.711,3.886-0.711,5.945c0,9.767,5.425,18.294,13.399,22.711c-0.076,0.042-0.192,0.042-0.266,0.042
			c-4.077,0.031-7.74-6.211-13.134-6.253c-1.116,0-33.68,0-33.68,0C317.163-8.656,333.365-15.134,348.071-15.207z M378.161,48.36
			c-2.176,0.042-55.572,0.075-60.214,0.042c-2.58-0.115-3.472-0.785-3.588-3.747c24.813,0.308,67.39,0.147,67.39,0.147
			C381.603,47.353,380.7,48.254,378.161,48.36z M381.783,37.18h-67.35c-2.473-0.074-3.854-1.985-3.78-3.97
			c0.075-1.764,1.423-3.335,3.44-3.517c0,0,5.395,0,6.997,0c1.912,0,3.186,1.084,4.27,1.753c2.803,1.805,5.16,3.821,9.619,3.854
			c3.96,0.044,6.583-1.942,9.917-3.886c1.157-0.668,2.876-1.721,4.863-1.721c6.021-0.041,32.17,0,32.255,0
			c2.019,0.149,3.366,1.753,3.475,3.517C385.563,35.151,384.223,37.021,381.783,37.18z M381.783,22.209c0,0-27.384,0-32.884,0
			c-5.351,0-10.258,6.211-13.889,6.243c-4.077,0-7.739-6.211-13.134-6.243c-3.632-0.043-7.443,0-7.443,0
			c-2.473-0.073-3.854-1.986-3.78-3.972c0.116-1.826,1.572-3.514,3.78-3.514h32.852c1.91,0,3.187,1.124,4.267,1.794
			c2.806,1.762,5.161,3.779,9.621,3.823c3.928,0.031,6.542-1.87,9.832-3.855c0.978,0.148,2.028,0.224,3.036,0.224
			c3.219,0,6.319-0.596,9.164-1.721c1.348,0.521,2.209,1.869,2.284,3.249C385.563,20.191,384.223,22.061,381.783,22.209z
			 M388.334,2.417c-3.366,4.153-8.527,6.807-14.293,6.807c-1.348,0-2.695-0.149-3.971-0.447c-5.275-1.126-9.684-4.533-12.188-9.099
			c-0.604-1.083-1.094-2.166-1.466-3.364c-0.561-1.764-0.86-3.632-0.86-5.575v-0.34c0.032-1.753,0.3-3.441,0.786-5.012
			c0.786-2.538,2.134-4.895,3.855-6.848c3.365-3.855,8.345-6.287,13.844-6.287c10.182,0,18.485,8.313,18.485,18.486
			C392.526-4.814,390.954-0.768,388.334,2.417z"/>
	</g>
	<g>
		<path fill="#558C89" d="M388.112-10.57L383.77-7.39L377.635-2.9l-5.352,3.928c-0.637,0.488-1.423,0.712-2.209,0.712
			c-1.008,0-2.02-0.412-2.729-1.197l-6.997-7.558c-1.42-1.535-1.31-3.894,0.187-5.276c0.522-0.523,1.199-0.823,1.871-0.937
			c1.234-0.223,2.542,0.15,3.443,1.123l0.186,0.188l4.526,4.94l1.798-1.31l6.212-4.567l5.088-3.74
			c1.683-1.236,4.006-0.861,5.24,0.784C390.133-14.124,389.757-11.769,388.112-10.57z"/>
	</g>
</g>
<rect x="217.917" y="67.908" fill="none" width="267.334" height="110.855"/>
<text transform="matrix(1 0 0 1 263.9531 98.9883)"><tspan x="0" y="0" fill="#D98538" font-family="'Quicksand-Medium'" font-size="42">Not your</tspan><tspan x="-3.844" y="37" fill="#D98538" font-family="'Quicksand-Medium'" font-size="42">last meal</tspan></text>
<g>
	<g>
		<path fill-rule="evenodd" clip-rule="evenodd" fill="#558C89" d="M73.069,38.984c-1.183,0-2.091,0.93-2.091,2.091
			c0,1.127,0.908,2.091,2.091,2.091c1.174,0,2.086-0.964,2.086-2.091C75.155,39.914,74.243,38.984,73.069,38.984z M81.436,30.617
			c-1.174,0-2.086,0.93-2.086,2.087c0,1.147,0.912,2.107,2.086,2.107c1.161,0,2.087-0.96,2.087-2.107
			C83.522,31.547,82.597,30.617,81.436,30.617z M85.613,38.984c-1.166,0-2.091,0.93-2.091,2.091c0,1.127,0.925,2.091,2.091,2.091
			c1.174,0,2.091-0.964,2.091-2.091C87.704,39.914,86.787,38.984,85.613,38.984z M93.984,34.812c-1.174,0-2.091,0.908-2.091,2.091
			c0,1.122,0.917,2.082,2.091,2.082s2.091-0.96,2.091-2.082C96.075,35.72,95.158,34.812,93.984,34.812z M133.309,31.963
			c-0.955-1.05-2.052-2.01-3.132-2.893l-6.953,5.111c1.165,0.827,2.219,1.757,3.226,2.798c0.96,1.002,1.838,2.057,2.665,3.222
			l6.863-5.021C135.185,34.049,134.276,32.97,133.309,31.963z M85.613,38.984c-1.166,0-2.091,0.93-2.091,2.091
			c0,1.127,0.925,2.091,2.091,2.091c1.174,0,2.091-0.964,2.091-2.091C87.704,39.914,86.787,38.984,85.613,38.984z M73.069,38.984
			c-1.183,0-2.091,0.93-2.091,2.091c0,1.127,0.908,2.091,2.091,2.091c1.174,0,2.086-0.964,2.086-2.091
			C75.155,39.914,74.243,38.984,73.069,38.984z M93.984,34.812c-1.174,0-2.091,0.908-2.091,2.091c0,1.122,0.917,2.082,2.091,2.082
			s2.091-0.96,2.091-2.082C96.075,35.72,95.158,34.812,93.984,34.812z M81.436,30.617c-1.174,0-2.086,0.93-2.086,2.087
			c0,1.147,0.912,2.107,2.086,2.107c1.161,0,2.087-0.96,2.087-2.107C83.522,31.547,82.597,30.617,81.436,30.617z M73.069,38.984
			c-1.183,0-2.091,0.93-2.091,2.091c0,1.127,0.908,2.091,2.091,2.091c1.174,0,2.086-0.964,2.086-2.091
			C75.155,39.914,74.243,38.984,73.069,38.984z M81.436,30.617c-1.174,0-2.086,0.93-2.086,2.087c0,1.147,0.912,2.107,2.086,2.107
			c1.161,0,2.087-0.96,2.087-2.107C83.522,31.547,82.597,30.617,81.436,30.617z M85.613,38.984c-1.166,0-2.091,0.93-2.091,2.091
			c0,1.127,0.925,2.091,2.091,2.091c1.174,0,2.091-0.964,2.091-2.091C87.704,39.914,86.787,38.984,85.613,38.984z M93.984,34.812
			c-1.174,0-2.091,0.908-2.091,2.091c0,1.122,0.917,2.082,2.091,2.082s2.091-0.96,2.091-2.082
			C96.075,35.72,95.158,34.812,93.984,34.812z"/>
	</g>
	<g>
		<path fill="#558C89" d="M140.836,31.624l-4.858,3.556l-6.851,5.021c-0.84-1.165-1.718-2.215-2.682-3.222
			c-1.003-1.046-2.057-1.971-3.222-2.802l6.944-5.107l5.686-4.181c1.889-1.38,4.485-0.964,5.865,0.878
			C143.094,27.657,142.674,30.287,140.836,31.624z"/>
		<path fill="#558C89" d="M146.276,63.421c-0.128-2.84-1.246-5.522-3.102-7.608c6.692-5.321,10.968-13.525,10.968-22.724
			c0-15.979-13.028-29.037-29.038-29.037c-10.586,0-19.818,5.697-24.84,14.138c-1.26-0.082-2.519-0.116-3.778-0.116
			c-24.214,0-46.261,13.054-46.423,36.608c-2.468,2.202-4.027,5.351-4.19,8.739c-0.163,3.342,1.007,6.56,3.227,8.997
			c-1.924,2.134-3.063,4.854-3.227,7.732c-0.163,3.886,1.423,7.579,4.31,10.081c-0.998,9.202,2.978,15.397,12.048,15.692
			c5.23,0.034,65.179,0,67.685-0.051c8.157-0.292,13.174-5.848,12.013-15.59c2.918-2.52,4.508-6.247,4.349-10.133
			c-0.171-2.879-1.345-5.599-3.188-7.732C145.274,69.98,146.436,66.763,146.276,63.421z M96.075,26.44h0.792
			c-0.544,2.125-0.792,4.344-0.792,6.648c0,10.921,6.066,20.453,14.978,25.393c-0.082,0.047-0.215,0.047-0.301,0.047
			c-4.554,0.034-8.653-6.944-14.677-6.991c-1.251,0-37.653,0-37.653,0C61.519,33.767,79.633,26.521,96.075,26.44z M129.71,97.506
			c-2.43,0.052-62.125,0.086-67.317,0.052c-2.879-0.133-3.881-0.883-4.01-4.194c27.744,0.347,75.341,0.167,75.341,0.167
			C133.562,96.384,132.546,97.391,129.71,97.506z M133.759,85.005h-75.29c-2.768-0.077-4.31-2.22-4.229-4.43
			c0.086-1.976,1.589-3.731,3.847-3.938c0,0,6.032,0,7.819,0c2.142,0,3.564,1.213,4.776,1.962c3.132,2.019,5.771,4.271,10.753,4.306
			c4.426,0.052,7.36-2.172,11.088-4.34c1.294-0.75,3.213-1.928,5.437-1.928c6.73-0.047,35.966,0,36.064,0
			c2.253,0.167,3.761,1.962,3.877,3.938C137.986,82.742,136.487,84.829,133.759,85.005z M133.759,68.275c0,0-30.61,0-36.759,0
			c-5.984,0-11.473,6.936-15.529,6.979c-4.559,0-8.65-6.944-14.683-6.979c-4.061-0.052-8.319,0-8.319,0
			c-2.768-0.086-4.31-2.224-4.229-4.443c0.133-2.043,1.761-3.924,4.229-3.924h36.724c2.138,0,3.564,1.251,4.772,2.001
			c3.136,1.966,5.767,4.229,10.753,4.271c4.396,0.035,7.313-2.086,10.993-4.305c1.093,0.167,2.267,0.252,3.394,0.252
			c3.599,0,7.064-0.668,10.247-1.928c1.509,0.583,2.468,2.091,2.55,3.633C137.986,66.018,136.487,68.104,133.759,68.275z
			 M141.08,46.144c-3.762,4.644-9.528,7.612-15.976,7.612c-1.504,0-3.012-0.171-4.438-0.505c-5.899-1.256-10.83-5.064-13.624-10.171
			c-0.677-1.208-1.225-2.416-1.641-3.762c-0.625-1.971-0.96-4.053-0.96-6.229v-0.385c0.035-1.954,0.335-3.839,0.879-5.596
			c0.878-2.84,2.382-5.475,4.31-7.655c3.762-4.314,9.327-7.03,15.475-7.03c11.383,0,20.667,9.296,20.667,20.666
			C145.771,38.059,144.011,42.583,141.08,46.144z"/>
	</g>
	<g>
		<path fill="#558C89" d="M140.836,31.624l-4.858,3.556l-6.851,5.021l-5.984,4.391c-0.716,0.545-1.59,0.793-2.473,0.793
			c-1.126,0-2.258-0.463-3.055-1.337l-7.818-8.448c-1.585-1.714-1.465-4.353,0.215-5.895c0.582-0.592,1.336-0.926,2.086-1.05
			c1.38-0.253,2.841,0.167,3.848,1.255l0.209,0.21l5.06,5.522l2.01-1.465l6.944-5.107l5.686-4.181
			c1.889-1.38,4.485-0.964,5.865,0.878C143.094,27.657,142.674,30.287,140.836,31.624z"/>
	</g>
</g>
<g>
	<path fill="#D98538" d="M32.062,121.827c0.372,0.39,0.561,0.883,0.561,1.478v28.503c0,0.659-0.21,1.208-0.634,1.641
		c-0.424,0.441-0.964,0.66-1.624,0.66c-0.343,0-0.677-0.052-1.002-0.167c-0.334-0.107-0.592-0.271-0.78-0.493l-18.451-24.034v22.629
		c0,0.596-0.197,1.084-0.587,1.482c-0.395,0.386-0.887,0.583-1.479,0.583c-0.596,0-1.084-0.197-1.456-0.583
		c-0.378-0.398-0.562-0.887-0.562-1.482v-28.55c0-0.659,0.21-1.195,0.63-1.619c0.424-0.424,0.946-0.634,1.572-0.634
		c0.377,0,0.736,0.072,1.084,0.21c0.343,0.142,0.608,0.338,0.797,0.591l18.404,24.086v-22.822c0-0.595,0.197-1.088,0.587-1.478
		c0.395-0.39,0.887-0.587,1.482-0.587C31.195,121.24,31.684,121.438,32.062,121.827z"/>
	<path fill="#D98538" d="M61.502,148.38c-1.097,1.941-2.597,3.462-4.49,4.555c-1.894,1.097-3.984,1.641-6.268,1.641
		s-4.374-0.544-6.268-1.641c-1.894-1.093-3.389-2.613-4.481-4.555c-1.097-1.937-1.645-4.134-1.645-6.571
		c0-2.442,0.548-4.648,1.645-6.624c1.093-1.975,2.588-3.509,4.481-4.601c1.894-1.097,3.984-1.641,6.268-1.641
		s4.374,0.544,6.268,1.641c1.894,1.092,3.394,2.626,4.49,4.601c1.093,1.976,1.641,4.182,1.641,6.624
		C63.143,144.246,62.595,146.443,61.502,148.38z M57.62,137.28c-0.702-1.337-1.653-2.369-2.861-3.103
		c-1.2-0.736-2.541-1.104-4.015-1.104c-1.47,0-2.806,0.368-4.014,1.104c-1.209,0.733-2.159,1.766-2.862,3.103
		c-0.707,1.323-1.059,2.836-1.059,4.528c0,1.657,0.352,3.14,1.059,4.455c0.703,1.315,1.653,2.339,2.862,3.08
		c1.208,0.737,2.544,1.102,4.014,1.102c1.474,0,2.814-0.364,4.015-1.102c1.208-0.741,2.159-1.765,2.861-3.08
		c0.711-1.315,1.063-2.798,1.063-4.455C58.683,140.116,58.331,138.604,57.62,137.28z"/>
	<path fill="#D98538" d="M74.971,133.87v13.991c0,1.568,0.712,2.349,2.117,2.349c0.214,0,0.514-0.057,0.891-0.163
		c0.377-0.111,0.673-0.167,0.892-0.167c0.406,0,0.749,0.176,1.036,0.522c0.283,0.343,0.42,0.779,0.42,1.315
		c0,0.655-0.377,1.217-1.127,1.688c-0.749,0.467-1.598,0.703-2.536,0.703c-1.032,0-1.979-0.111-2.84-0.326
		c-0.861-0.218-1.628-0.779-2.301-1.671c-0.673-0.891-1.007-2.244-1.007-4.062v-14.18h-2.725c-0.6,0-1.088-0.197-1.482-0.583
		c-0.395-0.398-0.583-0.887-0.583-1.482s0.188-1.084,0.583-1.452c0.395-0.377,0.883-0.57,1.482-0.57h2.725v-3.941
		c0-0.625,0.206-1.16,0.63-1.594c0.424-0.44,0.964-0.659,1.619-0.659c0.63,0,1.152,0.219,1.577,0.659
		c0.42,0.434,0.629,0.969,0.629,1.594v3.941h3.899c0.595,0,1.088,0.197,1.482,0.592c0.39,0.39,0.582,0.887,0.582,1.474
		c0,0.596-0.192,1.084-0.582,1.461c-0.395,0.377-0.888,0.562-1.482,0.562H74.971z"/>
	<path fill="#D98538" d="M119.09,129.929c0.419,0.44,0.634,0.972,0.634,1.594v20.285c0,3.911-1.084,6.842-3.239,8.782
		c-2.163,1.937-5.012,2.909-8.547,2.909c-1.161,0-2.305-0.107-3.432-0.325c-1.127-0.224-2.048-0.519-2.768-0.9
		c-1.156-0.531-1.739-1.251-1.739-2.154c0-0.159,0.034-0.36,0.095-0.613c0.188-0.531,0.454-0.938,0.797-1.217
		c0.347-0.282,0.736-0.424,1.174-0.424c0.248,0,0.488,0.047,0.707,0.142c0.968,0.437,1.829,0.779,2.583,1.032
		c0.754,0.248,1.624,0.377,2.63,0.377c4.851,0,7.275-2.489,7.275-7.467v-0.943c-0.845,1.127-1.933,2.01-3.261,2.631
		c-1.337,0.626-2.857,0.938-4.58,0.938c-2.596,0-4.627-0.827-6.083-2.489c-1.457-1.658-2.181-3.83-2.181-6.524v-14.039
		c0-0.656,0.201-1.195,0.608-1.62c0.407-0.42,0.942-0.634,1.598-0.634s1.2,0.219,1.62,0.66c0.424,0.44,0.634,0.972,0.634,1.594
		v12.865c0,2.064,0.454,3.594,1.362,4.575c0.908,0.989,2.287,1.482,4.13,1.482c1.782,0,3.26-0.565,4.412-1.692
		c1.157-1.127,1.74-2.579,1.74-4.365v-12.865c0-0.656,0.205-1.195,0.608-1.62c0.411-0.42,0.942-0.634,1.602-0.634
		C118.121,129.269,118.665,129.487,119.09,129.929z"/>
	<path fill="#D98538" d="M147.75,148.38c-1.097,1.941-2.592,3.462-4.485,4.555c-1.889,1.097-3.979,1.641-6.268,1.641
		s-4.37-0.544-6.268-1.641c-1.89-1.093-3.389-2.613-4.485-4.555c-1.093-1.937-1.641-4.134-1.641-6.571
		c0-2.442,0.548-4.648,1.641-6.624c1.097-1.975,2.596-3.509,4.485-4.601c1.897-1.097,3.979-1.641,6.268-1.641
		s4.379,0.544,6.268,1.641c1.894,1.092,3.389,2.626,4.485,4.601c1.102,1.976,1.649,4.182,1.649,6.624
		C149.399,144.246,148.852,146.443,147.75,148.38z M143.878,137.28c-0.703-1.337-1.663-2.369-2.866-3.103
		c-1.2-0.736-2.536-1.104-4.015-1.104c-1.47,0-2.811,0.368-4.015,1.104c-1.203,0.733-2.159,1.766-2.861,3.103
		c-0.707,1.323-1.059,2.836-1.059,4.528c0,1.657,0.352,3.14,1.059,4.455c0.702,1.315,1.658,2.339,2.861,3.08
		c1.204,0.737,2.545,1.102,4.015,1.102c1.479,0,2.814-0.364,4.015-1.102c1.203-0.741,2.163-1.765,2.866-3.08
		c0.706-1.315,1.058-2.798,1.058-4.455C144.936,140.116,144.584,138.604,143.878,137.28z"/>
	<path fill="#D98538" d="M174.488,130.164c0.424,0.437,0.643,0.973,0.643,1.594v12.488c0,3.26-0.904,5.788-2.704,7.583
		c-1.808,1.804-4.344,2.703-7.63,2.703c-3.26,0-5.774-0.899-7.562-2.703c-1.786-1.795-2.678-4.323-2.678-7.583v-12.488
		c0-0.621,0.215-1.157,0.635-1.594c0.419-0.441,0.946-0.66,1.576-0.66c0.655,0,1.199,0.219,1.615,0.66
		c0.424,0.437,0.639,0.973,0.639,1.594v12.488c0,4.1,1.919,6.156,5.774,6.156c1.911,0,3.363-0.522,4.365-1.551
		c1.003-1.037,1.504-2.57,1.504-4.605v-12.488c0-0.621,0.206-1.157,0.63-1.594c0.425-0.441,0.951-0.66,1.581-0.66
		C173.528,129.504,174.063,129.723,174.488,130.164z"/>
	<path fill="#D98538" d="M196.157,129.572c0.596,0.425,0.891,0.951,0.891,1.572c0,0.755-0.192,1.328-0.582,1.719
		c-0.391,0.39-0.87,0.582-1.432,0.582c-0.286,0-0.706-0.09-1.268-0.278c-0.66-0.219-1.179-0.33-1.551-0.33
		c-0.969,0-1.915,0.339-2.845,1.007c-0.921,0.677-1.671,1.599-2.254,2.776c-0.578,1.174-0.869,2.477-0.869,3.92v11.314
		c0,0.63-0.206,1.161-0.63,1.594c-0.42,0.441-0.96,0.66-1.624,0.66c-0.651,0-1.19-0.215-1.589-0.635
		c-0.412-0.424-0.613-0.964-0.613-1.619v-20.097c0-0.621,0.215-1.157,0.635-1.594c0.424-0.441,0.946-0.66,1.567-0.66
		c0.664,0,1.204,0.219,1.624,0.66c0.424,0.437,0.63,0.973,0.63,1.594v2.399c0.693-1.534,1.727-2.781,3.102-3.736
		c1.38-0.955,2.947-1.448,4.699-1.478C194.863,128.943,195.562,129.148,196.157,129.572z"/>
	<path fill="#D98538" d="M5.156,194.816c-0.445,0.437-0.977,0.655-1.598,0.655c-0.63,0-1.152-0.219-1.572-0.655
		c-0.424-0.438-0.634-0.969-0.634-1.594V162.98c0-0.625,0.218-1.156,0.655-1.598c0.437-0.433,0.973-0.655,1.598-0.655
		c0.626,0,1.148,0.223,1.572,0.655c0.425,0.441,0.635,0.973,0.635,1.598v30.242C5.813,193.848,5.594,194.379,5.156,194.816z"/>
	<path fill="#D98538" d="M34.431,171.172c0.424,0.424,0.629,0.981,0.629,1.671v20.38c0,0.625-0.205,1.156-0.629,1.594
		c-0.425,0.437-0.965,0.655-1.624,0.655c-0.651,0-1.187-0.214-1.594-0.63c-0.407-0.424-0.608-0.968-0.608-1.619v-1.226
		c-0.814,1.101-1.928,2.026-3.333,2.793c-1.409,0.771-2.931,1.157-4.559,1.157c-2.129,0-4.062-0.553-5.801-1.649
		c-1.73-1.093-3.093-2.622-4.078-4.575c-0.99-1.958-1.482-4.16-1.482-6.598c0-2.442,0.492-4.645,1.482-6.603
		c0.985-1.953,2.339-3.475,4.062-4.575c1.718-1.093,3.611-1.641,5.676-1.641c1.663,0,3.2,0.343,4.632,1.028
		c1.422,0.693,2.553,1.567,3.401,2.635v-1.127c0-0.66,0.201-1.208,0.608-1.646c0.407-0.437,0.942-0.655,1.594-0.655
		C33.466,170.542,34.006,170.752,34.431,171.172z M27.151,190.682c1.144-0.749,2.03-1.782,2.678-3.102
		c0.639-1.307,0.964-2.793,0.964-4.455c0-1.628-0.325-3.098-0.964-4.413c-0.647-1.319-1.534-2.36-2.678-3.123
		c-1.14-0.767-2.45-1.152-3.924-1.152c-1.466,0-2.776,0.377-3.916,1.127c-1.144,0.749-2.039,1.786-2.678,3.102
		c-0.643,1.315-0.964,2.802-0.964,4.46c0,1.662,0.321,3.148,0.964,4.455c0.639,1.319,1.534,2.353,2.678,3.102
		c1.14,0.75,2.45,1.127,3.916,1.127C24.701,191.809,26.012,191.432,27.151,190.682z"/>
	<path fill="#D98538" d="M39.854,190.356c0-0.63,0.33-1.161,0.985-1.594c0.313-0.228,0.673-0.334,1.08-0.334
		c0.562,0,1.079,0.235,1.547,0.702c0.942,1.067,1.953,1.868,3.033,2.399c1.079,0.531,2.369,0.792,3.872,0.792
		c1.191-0.025,2.236-0.3,3.146-0.817c0.908-0.515,1.362-1.354,1.362-2.511c0-1.063-0.463-1.881-1.389-2.442
		c-0.921-0.565-2.274-1.079-4.062-1.551c-1.748-0.467-3.204-0.96-4.365-1.482c-1.156-0.514-2.138-1.264-2.935-2.253
		c-0.797-0.981-1.199-2.275-1.199-3.873c0-1.405,0.402-2.639,1.199-3.706c0.797-1.063,1.863-1.894,3.196-2.489
		c1.328-0.591,2.775-0.891,4.344-0.891c1.499,0,2.995,0.282,4.481,0.84c1.49,0.569,2.699,1.431,3.642,2.587
		c0.372,0.441,0.561,0.892,0.561,1.362c0,0.502-0.248,0.981-0.749,1.453c-0.317,0.287-0.707,0.424-1.174,0.424
		c-0.565,0-1.02-0.185-1.362-0.562c-0.66-0.749-1.466-1.332-2.417-1.739c-0.959-0.407-2.014-0.612-3.17-0.612
		c-1.191,0-2.202,0.244-3.029,0.732c-0.835,0.484-1.246,1.303-1.246,2.463c0.034,1.093,0.505,1.907,1.431,2.438
		s2.339,1.054,4.25,1.551c1.662,0.441,3.037,0.908,4.134,1.413c1.097,0.497,2.019,1.243,2.772,2.232
		c0.749,0.981,1.122,2.275,1.122,3.873c0,1.47-0.42,2.742-1.268,3.825c-0.845,1.076-1.945,1.902-3.308,2.489
		c-1.362,0.574-2.811,0.87-4.345,0.87c-1.971,0-3.795-0.352-5.466-1.037c-1.68-0.686-3.094-1.786-4.25-3.29
		C39.995,191.188,39.854,190.764,39.854,190.356z"/>
	<path fill="#D98538" d="M70.747,175.237v13.992c0,1.563,0.702,2.344,2.116,2.344c0.214,0,0.515-0.052,0.892-0.163
		s0.672-0.163,0.891-0.163c0.407,0,0.75,0.172,1.037,0.515c0.273,0.347,0.42,0.784,0.42,1.319c0,0.655-0.377,1.217-1.132,1.684
		c-0.745,0.472-1.593,0.707-2.531,0.707c-1.032,0-1.979-0.111-2.841-0.325c-0.861-0.219-1.628-0.78-2.305-1.667
		c-0.668-0.892-1.007-2.249-1.007-4.062v-14.181h-2.721c-0.6,0-1.088-0.192-1.482-0.587c-0.394-0.39-0.582-0.887-0.582-1.482
		c0-0.591,0.188-1.075,0.582-1.452c0.395-0.381,0.883-0.569,1.482-0.569h2.721v-3.941c0-0.621,0.21-1.152,0.634-1.594
		c0.425-0.441,0.964-0.66,1.62-0.66c0.625,0,1.152,0.219,1.572,0.66c0.424,0.441,0.634,0.973,0.634,1.594v3.941h3.898
		c0.591,0,1.088,0.201,1.482,0.591c0.386,0.395,0.583,0.887,0.583,1.482s-0.197,1.075-0.583,1.452
		c-0.395,0.377-0.892,0.565-1.482,0.565H70.747z"/>
	<path fill="#D98538" d="M131.368,180.683v12.54c0,0.651-0.206,1.195-0.613,1.619c-0.402,0.416-0.942,0.63-1.594,0.63
		c-0.659,0-1.203-0.219-1.623-0.655c-0.425-0.438-0.63-0.969-0.63-1.594v-12.493c0-4.1-1.727-6.147-5.167-6.147
		c-1.217,0-2.326,0.274-3.312,0.814c-0.985,0.552-1.752,1.293-2.301,2.231c-0.548,0.938-0.822,1.976-0.822,3.102v12.493
		c0,0.625-0.206,1.156-0.63,1.594c-0.424,0.437-0.968,0.655-1.624,0.655c-0.651,0-1.19-0.214-1.598-0.63
		c-0.402-0.424-0.612-0.968-0.612-1.619v-12.54c0-1.847-0.386-3.329-1.17-4.438s-2.078-1.662-3.898-1.662
		c-1.847,0-3.367,0.583-4.575,1.752c-1.209,1.179-1.809,2.627-1.809,4.349v12.54c0,0.625-0.214,1.156-0.634,1.594
		c-0.42,0.437-0.964,0.655-1.619,0.655c-0.66,0-1.191-0.214-1.599-0.63c-0.406-0.424-0.608-0.968-0.608-1.619v-20.102
		c0-0.625,0.21-1.156,0.63-1.594c0.429-0.437,0.951-0.66,1.577-0.66c0.655,0,1.199,0.224,1.619,0.66
		c0.42,0.438,0.634,0.969,0.634,1.594v1.641c0.814-1.217,1.902-2.24,3.265-3.071c1.358-0.827,2.836-1.247,4.438-1.247
		c3.877,0,6.4,1.723,7.562,5.167c0.686-1.315,1.829-2.502,3.419-3.568c1.603-1.059,3.29-1.599,5.076-1.599
		C128.622,170.443,131.368,173.858,131.368,180.683z"/>
	<path fill="#D98538" d="M158.928,183.664c-0.441,0.391-0.955,0.587-1.551,0.587h-16.524c0.219,2.284,1.089,4.113,2.605,5.493
		c1.512,1.379,3.367,2.064,5.564,2.064c1.5,0,2.721-0.219,3.659-0.655c0.938-0.438,1.773-1.003,2.489-1.688
		c0.476-0.282,0.921-0.424,1.366-0.424c0.527,0,0.973,0.188,1.332,0.562c0.36,0.377,0.545,0.818,0.545,1.315
		c0,0.655-0.321,1.251-0.938,1.782c-0.913,0.912-2.116,1.679-3.616,2.3c-1.508,0.63-3.042,0.947-4.605,0.947
		c-2.531,0-4.764-0.536-6.691-1.603s-3.415-2.554-4.456-4.455c-1.054-1.911-1.576-4.074-1.576-6.482c0-2.63,0.54-4.939,1.624-6.928
		c1.075-1.987,2.506-3.513,4.267-4.575c1.773-1.066,3.672-1.598,5.706-1.598c2.006,0,3.882,0.514,5.639,1.551
		c1.752,1.028,3.161,2.455,4.224,4.271c1.067,1.816,1.615,3.852,1.646,6.104C159.604,182.795,159.364,183.274,158.928,183.664z
		 M143.577,175.919c-1.285,0.985-2.129,2.511-2.54,4.575h13.854v-0.377c-0.162-1.658-0.903-3.021-2.231-4.083
		c-1.328-1.066-2.836-1.598-4.533-1.598C146.38,174.437,144.858,174.929,143.577,175.919z"/>
	<path fill="#D98538" d="M186.557,171.172c0.424,0.424,0.638,0.981,0.638,1.671v20.38c0,0.625-0.214,1.156-0.638,1.594
		c-0.42,0.437-0.96,0.655-1.62,0.655c-0.655,0-1.187-0.214-1.594-0.63c-0.406-0.424-0.608-0.968-0.608-1.619v-1.226
		c-0.813,1.101-1.928,2.026-3.337,2.793c-1.409,0.771-2.926,1.157-4.554,1.157c-2.13,0-4.062-0.553-5.801-1.649
		c-1.735-1.093-3.094-2.622-4.083-4.575c-0.985-1.958-1.479-4.16-1.479-6.598c0-2.442,0.493-4.645,1.479-6.603
		c0.989-1.953,2.344-3.475,4.062-4.575c1.727-1.093,3.611-1.641,5.685-1.641c1.658,0,3.196,0.343,4.623,1.028
		c1.427,0.693,2.562,1.567,3.405,2.635v-1.127c0-0.66,0.202-1.208,0.608-1.646c0.407-0.437,0.938-0.655,1.594-0.655
		C185.597,170.542,186.137,170.752,186.557,171.172z M179.282,190.682c1.144-0.749,2.034-1.782,2.677-3.102
		c0.639-1.307,0.96-2.793,0.96-4.455c0-1.628-0.321-3.098-0.96-4.413c-0.643-1.319-1.533-2.36-2.677-3.123
		c-1.145-0.767-2.451-1.152-3.925-1.152c-1.465,0-2.776,0.377-3.92,1.127c-1.136,0.749-2.03,1.786-2.669,3.102
		c-0.647,1.315-0.969,2.802-0.969,4.46c0,1.662,0.321,3.148,0.969,4.455c0.639,1.319,1.533,2.353,2.669,3.102
		c1.144,0.75,2.455,1.127,3.92,1.127C176.831,191.809,178.138,191.432,179.282,190.682z"/>
	<path fill="#D98538" d="M197.99,194.816c-0.437,0.437-0.964,0.655-1.594,0.655c-0.629,0-1.147-0.219-1.572-0.655
		c-0.424-0.438-0.634-0.969-0.634-1.594V162.98c0-0.625,0.215-1.156,0.655-1.598c0.441-0.433,0.969-0.655,1.599-0.655
		c0.625,0,1.152,0.223,1.576,0.655c0.42,0.441,0.63,0.973,0.63,1.598v30.242C198.65,193.848,198.432,194.379,197.99,194.816z"/>
</g>
</svg>
