<?xml version="1.0" encoding="UTF-8" standalone="no"?>
<!-- Generator: Adobe Illustrator 15.1.0, SVG Export Plug-In . SVG Version: 6.00 Build 0)  -->

<svg
   xmlns:dc="http://purl.org/dc/elements/1.1/"
   xmlns:cc="http://creativecommons.org/ns#"
   xmlns:rdf="http://www.w3.org/1999/02/22-rdf-syntax-ns#"
   xmlns:svg="http://www.w3.org/2000/svg"
   xmlns="http://www.w3.org/2000/svg"
   xmlns:sodipodi="http://sodipodi.sourceforge.net/DTD/sodipodi-0.dtd"
   xmlns:inkscape="http://www.inkscape.org/namespaces/inkscape"
   version="1.1"
   id="Calque_1"
   x="0px"
   y="0px"
   width="315"
   height="110"
   viewBox="0 0 315 110"
   enable-background="new 0 0 200 200"
   xml:space="preserve"
   inkscape:version="0.91 r13725"
   sodipodi:docname="logo-top-bar.svg"><metadata
     id="metadata79"><rdf:RDF><cc:Work
         rdf:about=""><dc:format>image/svg+xml</dc:format><dc:type
           rdf:resource="http://purl.org/dc/dcmitype/StillImage" /><dc:title></dc:title></cc:Work></rdf:RDF></metadata><defs
     id="defs77" /><sodipodi:namedview
     pagecolor="#ffffff"
     bordercolor="#666666"
     borderopacity="1"
     objecttolerance="10"
     gridtolerance="10"
     guidetolerance="10"
     inkscape:pageopacity="0"
     inkscape:pageshadow="2"
     inkscape:window-width="1863"
     inkscape:window-height="1056"
     id="namedview75"
     showgrid="false"
     inkscape:zoom="1.668772"
     inkscape:cx="200.44929"
     inkscape:cy="100"
     inkscape:window-x="57"
     inkscape:window-y="24"
     inkscape:window-maximized="1"
     inkscape:current-layer="g27" /><rect
     x="217.91701"
     y="-22.092003"
     width="267.33401"
     height="110.855"
     id="rect19"
     style="fill:none" /><g
     id="g27"
     style="stroke-width:1;stroke-miterlimit:4;stroke-dasharray:none"
     transform="translate(0,-90)"><path
       inkscape:connector-curvature="0"
       style="clip-rule:evenodd;fill:#ffffff;fill-rule:evenodd;stroke-width:1;stroke-miterlimit:4;stroke-dasharray:none"
       id="path31"
       d="m 28.725016,130.06895 c -1.183,0 -2.091,0.93 -2.091,2.091 0,1.127 0.908,2.091 2.091,2.091 1.174,0 2.086,-0.964 2.086,-2.091 0,-1.161 -0.912,-2.091 -2.086,-2.091 z m 8.367,-8.367 c -1.174,0 -2.086,0.93 -2.086,2.087 0,1.147 0.912,2.107 2.086,2.107 1.161,0 2.087,-0.96 2.087,-2.107 -10e-4,-1.157 -0.926,-2.087 -2.087,-2.087 z m 4.177,8.367 c -1.166,0 -2.091,0.93 -2.091,2.091 0,1.127 0.925,2.091 2.091,2.091 1.174,0 2.091,-0.964 2.091,-2.091 0,-1.161 -0.917,-2.091 -2.091,-2.091 z m 8.371,-4.172 c -1.174,0 -2.091,0.908 -2.091,2.091 0,1.122 0.917,2.082 2.091,2.082 1.174,0 2.091,-0.96 2.091,-2.082 0,-1.183 -0.917,-2.091 -2.091,-2.091 z m 39.325,-2.849 c -0.955,-1.05 -2.052,-2.01 -3.132,-2.893 l -6.953,5.111 c 1.165,0.827 2.219,1.757 3.226,2.798 0.96,1.002 1.838,2.057 2.665,3.222 l 6.863,-5.021 c -0.793,-1.131 -1.702,-2.21 -2.669,-3.217 z m -47.696,7.021 c -1.166,0 -2.091,0.93 -2.091,2.091 0,1.127 0.925,2.091 2.091,2.091 1.174,0 2.091,-0.964 2.091,-2.091 0,-1.161 -0.917,-2.091 -2.091,-2.091 z m -12.544,0 c -1.183,0 -2.091,0.93 -2.091,2.091 0,1.127 0.908,2.091 2.091,2.091 1.174,0 2.086,-0.964 2.086,-2.091 0,-1.161 -0.912,-2.091 -2.086,-2.091 z m 20.915,-4.172 c -1.174,0 -2.091,0.908 -2.091,2.091 0,1.122 0.917,2.082 2.091,2.082 1.174,0 2.091,-0.96 2.091,-2.082 0,-1.183 -0.917,-2.091 -2.091,-2.091 z m -12.548,-4.195 c -1.174,0 -2.086,0.93 -2.086,2.087 0,1.147 0.912,2.107 2.086,2.107 1.161,0 2.087,-0.96 2.087,-2.107 -10e-4,-1.157 -0.926,-2.087 -2.087,-2.087 z m -8.367,8.367 c -1.183,0 -2.091,0.93 -2.091,2.091 0,1.127 0.908,2.091 2.091,2.091 1.174,0 2.086,-0.964 2.086,-2.091 0,-1.161 -0.912,-2.091 -2.086,-2.091 z m 8.367,-8.367 c -1.174,0 -2.086,0.93 -2.086,2.087 0,1.147 0.912,2.107 2.086,2.107 1.161,0 2.087,-0.96 2.087,-2.107 -10e-4,-1.157 -0.926,-2.087 -2.087,-2.087 z m 4.177,8.367 c -1.166,0 -2.091,0.93 -2.091,2.091 0,1.127 0.925,2.091 2.091,2.091 1.174,0 2.091,-0.964 2.091,-2.091 0,-1.161 -0.917,-2.091 -2.091,-2.091 z m 8.371,-4.172 c -1.174,0 -2.091,0.908 -2.091,2.091 0,1.122 0.917,2.082 2.091,2.082 1.174,0 2.091,-0.96 2.091,-2.082 0,-1.183 -0.917,-2.091 -2.091,-2.091 z" /><path
       inkscape:connector-curvature="0"
       style="fill:#558c89;stroke-width:1;stroke-miterlimit:4;stroke-dasharray:none"
       id="path35"
       d="m 96.492016,122.70895 -4.858,3.556 -6.851,5.021 c -0.84,-1.165 -1.718,-2.215 -2.682,-3.222 -1.003,-1.046 -2.057,-1.971 -3.222,-2.802 l 6.944,-5.107 5.686,-4.181 c 1.889,-1.38 4.485,-0.964 5.865,0.878 1.376,1.89 0.956,4.52 -0.882,5.857 z" /><path
       inkscape:connector-curvature="0"
       style="fill:#ffffff;stroke-width:1;stroke-miterlimit:4;stroke-dasharray:none"
       id="path37"
       d="m 101.93202,154.50595 c -0.128,-2.84 -1.246,-5.522 -3.102004,-7.608 6.692004,-5.321 10.968004,-13.525 10.968004,-22.724 0,-15.979 -13.028004,-29.037008 -29.038004,-29.037008 -10.586,0 -19.818,5.697008 -24.84,14.138008 -1.26,-0.082 -2.519,-0.116 -3.778,-0.116 -24.214,0 -46.2610015,13.054 -46.4230015,36.608 -2.468,2.202 -4.027,5.351 -4.19,8.739 -0.163,3.342 1.007,6.56 3.227,8.997 -1.924,2.134 -3.063,4.854 -3.227,7.732 -0.163,3.886 1.423,7.579 4.31,10.081 -0.998,9.202 2.978,15.397 12.0480015,15.692 5.23,0.034 65.179,0 67.685,-0.051 8.157,-0.292 13.174,-5.848 12.013,-15.59 2.918004,-2.52 4.508004,-6.247 4.349004,-10.133 -0.171,-2.879 -1.345,-5.599 -3.188004,-7.732 2.184004,-2.437 3.346004,-5.654 3.186004,-8.996 z m -50.201004,-36.981 0.792,0 c -0.544,2.125 -0.792,4.344 -0.792,6.648 0,10.921 6.066,20.453 14.978,25.393 -0.082,0.047 -0.215,0.047 -0.301,0.047 -4.554,0.034 -8.653,-6.944 -14.677,-6.991 -1.251,0 -37.653,0 -37.653,0 3.097,-17.77 21.211,-25.016 37.653,-25.097 z m 33.635,71.066 c -2.43,0.052 -62.125,0.086 -67.317,0.052 -2.879,-0.133 -3.881,-0.883 -4.01,-4.194 27.744,0.347 75.341,0.167 75.341,0.167 -0.162,2.853 -1.178,3.86 -4.014,3.975 z m 4.049,-12.501 -75.29,0 c -2.768001,-0.077 -4.3100015,-2.22 -4.2290015,-4.43 0.086,-1.976 1.5890015,-3.731 3.8470015,-3.938 0,0 6.032,0 7.819,0 2.142,0 3.564,1.213 4.776,1.962 3.132,2.019 5.771,4.271 10.753,4.306 4.426,0.052 7.36,-2.172 11.088,-4.34 1.294,-0.75 3.213,-1.928 5.437,-1.928 6.73,-0.047 35.966,0 36.064,0 2.253,0.167 3.761,1.962 3.877,3.938 0.085,2.167 -1.414,4.254 -4.142,4.43 z m 0,-16.73 c 0,0 -30.61,0 -36.759,0 -5.984,0 -11.473,6.936 -15.529,6.979 -4.559,0 -8.65,-6.944 -14.683,-6.979 -4.061,-0.052 -8.319,0 -8.319,0 -2.768001,-0.086 -4.3100015,-2.224 -4.2290015,-4.443 0.1330005,-2.043 1.7610015,-3.924 4.2290015,-3.924 l 36.724,0 c 2.138,0 3.564,1.251 4.772,2.001 3.136,1.966 5.767,4.229 10.753,4.271 4.396,0.035 7.313,-2.086 10.993,-4.305 1.093,0.167 2.267,0.252 3.394,0.252 3.599,0 7.064,-0.668 10.247,-1.928 1.509,0.583 2.468,2.091 2.55,3.633 0.084,2.186 -1.415,4.272 -4.143,4.443 z m 7.321,-22.131 c -3.762,4.644 -9.528,7.612 -15.976,7.612 -1.504,0 -3.012,-0.171 -4.438,-0.505 -5.899,-1.256 -10.83,-5.064 -13.624,-10.171 -0.677,-1.208 -1.225,-2.416 -1.641,-3.762 -0.625,-1.971 -0.96,-4.053 -0.96,-6.229 l 0,-0.385 c 0.035,-1.954 0.335,-3.839 0.879,-5.596 0.878,-2.84 2.382,-5.475 4.31,-7.655 3.762,-4.314 9.327,-7.03 15.475,-7.03 11.383,0 20.667004,9.296 20.667004,20.666 -0.001,4.97 -1.761004,9.494 -4.692004,13.055 z" /><path
       inkscape:connector-curvature="0"
       style="fill:#ffffff;stroke-width:1;stroke-miterlimit:4;stroke-dasharray:none"
       id="path41"
       d="m 96.492016,122.70895 -4.858,3.556 -6.851,5.021 -5.984,4.391 c -0.716,0.545 -1.59,0.793 -2.473,0.793 -1.126,0 -2.258,-0.463 -3.055,-1.337 l -7.818,-8.448 c -1.585,-1.714 -1.465,-4.353 0.215,-5.895 0.582,-0.592 1.336,-0.926 2.086,-1.05 1.38,-0.253 2.841,0.167 3.848,1.255 l 0.209,0.21 5.06,5.522 2.01,-1.465 6.944,-5.107 5.686,-4.181 c 1.889,-1.38 4.485,-0.964 5.865,0.878 1.374,1.89 0.954,4.52 -0.884,5.857 z" /></g><g
     id="g43"
     transform="translate(111.4592,-94.79394)"><path
       d="m 32.062,121.827 c 0.372,0.39 0.561,0.883 0.561,1.478 l 0,28.503 c 0,0.659 -0.21,1.208 -0.634,1.641 -0.424,0.441 -0.964,0.66 -1.624,0.66 -0.343,0 -0.677,-0.052 -1.002,-0.167 -0.334,-0.107 -0.592,-0.271 -0.78,-0.493 l -18.451,-24.034 0,22.629 c 0,0.596 -0.197,1.084 -0.587,1.482 -0.395,0.386 -0.887,0.583 -1.479,0.583 -0.596,0 -1.084,-0.197 -1.456,-0.583 -0.378,-0.398 -0.562,-0.887 -0.562,-1.482 l 0,-28.55 c 0,-0.659 0.21,-1.195 0.63,-1.619 0.424,-0.424 0.946,-0.634 1.572,-0.634 0.377,0 0.736,0.072 1.084,0.21 0.343,0.142 0.608,0.338 0.797,0.591 l 18.404,24.086 0,-22.822 c 0,-0.595 0.197,-1.088 0.587,-1.478 0.395,-0.39 0.887,-0.587 1.482,-0.587 0.591,-0.001 1.08,0.197 1.458,0.586 z"
       id="path45"
       inkscape:connector-curvature="0"
       style="fill:#d98538" /><path
       d="m 61.502,148.38 c -1.097,1.941 -2.597,3.462 -4.49,4.555 -1.894,1.097 -3.984,1.641 -6.268,1.641 -2.284,0 -4.374,-0.544 -6.268,-1.641 -1.894,-1.093 -3.389,-2.613 -4.481,-4.555 -1.097,-1.937 -1.645,-4.134 -1.645,-6.571 0,-2.442 0.548,-4.648 1.645,-6.624 1.093,-1.975 2.588,-3.509 4.481,-4.601 1.894,-1.097 3.984,-1.641 6.268,-1.641 2.284,0 4.374,0.544 6.268,1.641 1.894,1.092 3.394,2.626 4.49,4.601 1.093,1.976 1.641,4.182 1.641,6.624 0,2.437 -0.548,4.634 -1.641,6.571 z m -3.882,-11.1 c -0.702,-1.337 -1.653,-2.369 -2.861,-3.103 -1.2,-0.736 -2.541,-1.104 -4.015,-1.104 -1.47,0 -2.806,0.368 -4.014,1.104 -1.209,0.733 -2.159,1.766 -2.862,3.103 -0.707,1.323 -1.059,2.836 -1.059,4.528 0,1.657 0.352,3.14 1.059,4.455 0.703,1.315 1.653,2.339 2.862,3.08 1.208,0.737 2.544,1.102 4.014,1.102 1.474,0 2.814,-0.364 4.015,-1.102 1.208,-0.741 2.159,-1.765 2.861,-3.08 0.711,-1.315 1.063,-2.798 1.063,-4.455 0,-1.692 -0.352,-3.204 -1.063,-4.528 z"
       id="path47"
       inkscape:connector-curvature="0"
       style="fill:#d98538" /><path
       d="m 74.971,133.87 0,13.991 c 0,1.568 0.712,2.349 2.117,2.349 0.214,0 0.514,-0.057 0.891,-0.163 0.377,-0.111 0.673,-0.167 0.892,-0.167 0.406,0 0.749,0.176 1.036,0.522 0.283,0.343 0.42,0.779 0.42,1.315 0,0.655 -0.377,1.217 -1.127,1.688 -0.749,0.467 -1.598,0.703 -2.536,0.703 -1.032,0 -1.979,-0.111 -2.84,-0.326 -0.861,-0.218 -1.628,-0.779 -2.301,-1.671 -0.673,-0.891 -1.007,-2.244 -1.007,-4.062 l 0,-14.18 -2.725,0 c -0.6,0 -1.088,-0.197 -1.482,-0.583 -0.395,-0.398 -0.583,-0.887 -0.583,-1.482 0,-0.595 0.188,-1.084 0.583,-1.452 0.395,-0.377 0.883,-0.57 1.482,-0.57 l 2.725,0 0,-3.941 c 0,-0.625 0.206,-1.16 0.63,-1.594 0.424,-0.44 0.964,-0.659 1.619,-0.659 0.63,0 1.152,0.219 1.577,0.659 0.42,0.434 0.629,0.969 0.629,1.594 l 0,3.941 3.899,0 c 0.595,0 1.088,0.197 1.482,0.592 0.39,0.39 0.582,0.887 0.582,1.474 0,0.596 -0.192,1.084 -0.582,1.461 -0.395,0.377 -0.888,0.562 -1.482,0.562 l -3.899,0 z"
       id="path49"
       inkscape:connector-curvature="0"
       style="fill:#d98538" /><path
       d="m 119.09,129.929 c 0.419,0.44 0.634,0.972 0.634,1.594 l 0,20.285 c 0,3.911 -1.084,6.842 -3.239,8.782 -2.163,1.937 -5.012,2.909 -8.547,2.909 -1.161,0 -2.305,-0.107 -3.432,-0.325 -1.127,-0.224 -2.048,-0.519 -2.768,-0.9 -1.156,-0.531 -1.739,-1.251 -1.739,-2.154 0,-0.159 0.034,-0.36 0.095,-0.613 0.188,-0.531 0.454,-0.938 0.797,-1.217 0.347,-0.282 0.736,-0.424 1.174,-0.424 0.248,0 0.488,0.047 0.707,0.142 0.968,0.437 1.829,0.779 2.583,1.032 0.754,0.248 1.624,0.377 2.63,0.377 4.851,0 7.275,-2.489 7.275,-7.467 l 0,-0.943 c -0.845,1.127 -1.933,2.01 -3.261,2.631 -1.337,0.626 -2.857,0.938 -4.58,0.938 -2.596,0 -4.627,-0.827 -6.083,-2.489 -1.457,-1.658 -2.181,-3.83 -2.181,-6.524 l 0,-14.039 c 0,-0.656 0.201,-1.195 0.608,-1.62 0.407,-0.42 0.942,-0.634 1.598,-0.634 0.656,0 1.2,0.219 1.62,0.66 0.424,0.44 0.634,0.972 0.634,1.594 l 0,12.865 c 0,2.064 0.454,3.594 1.362,4.575 0.908,0.989 2.287,1.482 4.13,1.482 1.782,0 3.26,-0.565 4.412,-1.692 1.157,-1.127 1.74,-2.579 1.74,-4.365 l 0,-12.865 c 0,-0.656 0.205,-1.195 0.608,-1.62 0.411,-0.42 0.942,-0.634 1.602,-0.634 0.652,-0.001 1.196,0.217 1.621,0.659 z"
       id="path51"
       inkscape:connector-curvature="0"
       style="fill:#d98538" /><path
       d="m 147.75,148.38 c -1.097,1.941 -2.592,3.462 -4.485,4.555 -1.889,1.097 -3.979,1.641 -6.268,1.641 -2.289,0 -4.37,-0.544 -6.268,-1.641 -1.89,-1.093 -3.389,-2.613 -4.485,-4.555 -1.093,-1.937 -1.641,-4.134 -1.641,-6.571 0,-2.442 0.548,-4.648 1.641,-6.624 1.097,-1.975 2.596,-3.509 4.485,-4.601 1.897,-1.097 3.979,-1.641 6.268,-1.641 2.289,0 4.379,0.544 6.268,1.641 1.894,1.092 3.389,2.626 4.485,4.601 1.102,1.976 1.649,4.182 1.649,6.624 0,2.437 -0.547,4.634 -1.649,6.571 z m -3.872,-11.1 c -0.703,-1.337 -1.663,-2.369 -2.866,-3.103 -1.2,-0.736 -2.536,-1.104 -4.015,-1.104 -1.47,0 -2.811,0.368 -4.015,1.104 -1.203,0.733 -2.159,1.766 -2.861,3.103 -0.707,1.323 -1.059,2.836 -1.059,4.528 0,1.657 0.352,3.14 1.059,4.455 0.702,1.315 1.658,2.339 2.861,3.08 1.204,0.737 2.545,1.102 4.015,1.102 1.479,0 2.814,-0.364 4.015,-1.102 1.203,-0.741 2.163,-1.765 2.866,-3.08 0.706,-1.315 1.058,-2.798 1.058,-4.455 0,-1.692 -0.352,-3.204 -1.058,-4.528 z"
       id="path53"
       inkscape:connector-curvature="0"
       style="fill:#d98538" /><path
       d="m 174.488,130.164 c 0.424,0.437 0.643,0.973 0.643,1.594 l 0,12.488 c 0,3.26 -0.904,5.788 -2.704,7.583 -1.808,1.804 -4.344,2.703 -7.63,2.703 -3.26,0 -5.774,-0.899 -7.562,-2.703 -1.786,-1.795 -2.678,-4.323 -2.678,-7.583 l 0,-12.488 c 0,-0.621 0.215,-1.157 0.635,-1.594 0.419,-0.441 0.946,-0.66 1.576,-0.66 0.655,0 1.199,0.219 1.615,0.66 0.424,0.437 0.639,0.973 0.639,1.594 l 0,12.488 c 0,4.1 1.919,6.156 5.774,6.156 1.911,0 3.363,-0.522 4.365,-1.551 1.003,-1.037 1.504,-2.57 1.504,-4.605 l 0,-12.488 c 0,-0.621 0.206,-1.157 0.63,-1.594 0.425,-0.441 0.951,-0.66 1.581,-0.66 0.652,0 1.187,0.219 1.612,0.66 z"
       id="path55"
       inkscape:connector-curvature="0"
       style="fill:#d98538" /><path
       d="m 196.157,129.572 c 0.596,0.425 0.891,0.951 0.891,1.572 0,0.755 -0.192,1.328 -0.582,1.719 -0.391,0.39 -0.87,0.582 -1.432,0.582 -0.286,0 -0.706,-0.09 -1.268,-0.278 -0.66,-0.219 -1.179,-0.33 -1.551,-0.33 -0.969,0 -1.915,0.339 -2.845,1.007 -0.921,0.677 -1.671,1.599 -2.254,2.776 -0.578,1.174 -0.869,2.477 -0.869,3.92 l 0,11.314 c 0,0.63 -0.206,1.161 -0.63,1.594 -0.42,0.441 -0.96,0.66 -1.624,0.66 -0.651,0 -1.19,-0.215 -1.589,-0.635 -0.412,-0.424 -0.613,-0.964 -0.613,-1.619 l 0,-20.097 c 0,-0.621 0.215,-1.157 0.635,-1.594 0.424,-0.441 0.946,-0.66 1.567,-0.66 0.664,0 1.204,0.219 1.624,0.66 0.424,0.437 0.63,0.973 0.63,1.594 l 0,2.399 c 0.693,-1.534 1.727,-2.781 3.102,-3.736 1.38,-0.955 2.947,-1.448 4.699,-1.478 0.815,0.001 1.514,0.206 2.109,0.63 z"
       id="path57"
       inkscape:connector-curvature="0"
       style="fill:#d98538" /><path
       d="m 5.156,194.816 c -0.445,0.437 -0.977,0.655 -1.598,0.655 -0.63,0 -1.152,-0.219 -1.572,-0.655 -0.424,-0.438 -0.634,-0.969 -0.634,-1.594 l 0,-30.242 c 0,-0.625 0.218,-1.156 0.655,-1.598 0.437,-0.433 0.973,-0.655 1.598,-0.655 0.626,0 1.148,0.223 1.572,0.655 0.425,0.441 0.635,0.973 0.635,1.598 l 0,30.242 c 10e-4,0.626 -0.218,1.157 -0.656,1.594 z"
       id="path59"
       inkscape:connector-curvature="0"
       style="fill:#d98538" /><path
       d="m 34.431,171.172 c 0.424,0.424 0.629,0.981 0.629,1.671 l 0,20.38 c 0,0.625 -0.205,1.156 -0.629,1.594 -0.425,0.437 -0.965,0.655 -1.624,0.655 -0.651,0 -1.187,-0.214 -1.594,-0.63 -0.407,-0.424 -0.608,-0.968 -0.608,-1.619 l 0,-1.226 c -0.814,1.101 -1.928,2.026 -3.333,2.793 -1.409,0.771 -2.931,1.157 -4.559,1.157 -2.129,0 -4.062,-0.553 -5.801,-1.649 -1.73,-1.093 -3.093,-2.622 -4.078,-4.575 -0.99,-1.958 -1.482,-4.16 -1.482,-6.598 0,-2.442 0.492,-4.645 1.482,-6.603 0.985,-1.953 2.339,-3.475 4.062,-4.575 1.718,-1.093 3.611,-1.641 5.676,-1.641 1.663,0 3.2,0.343 4.632,1.028 1.422,0.693 2.553,1.567 3.401,2.635 l 0,-1.127 c 0,-0.66 0.201,-1.208 0.608,-1.646 0.407,-0.437 0.942,-0.655 1.594,-0.655 0.659,0.001 1.199,0.211 1.624,0.631 z m -7.28,19.51 c 1.144,-0.749 2.03,-1.782 2.678,-3.102 0.639,-1.307 0.964,-2.793 0.964,-4.455 0,-1.628 -0.325,-3.098 -0.964,-4.413 -0.647,-1.319 -1.534,-2.36 -2.678,-3.123 -1.14,-0.767 -2.45,-1.152 -3.924,-1.152 -1.466,0 -2.776,0.377 -3.916,1.127 -1.144,0.749 -2.039,1.786 -2.678,3.102 -0.643,1.315 -0.964,2.802 -0.964,4.46 0,1.662 0.321,3.148 0.964,4.455 0.639,1.319 1.534,2.353 2.678,3.102 1.14,0.75 2.45,1.127 3.916,1.127 1.474,-0.001 2.785,-0.378 3.924,-1.128 z"
       id="path61"
       inkscape:connector-curvature="0"
       style="fill:#d98538" /><path
       d="m 39.854,190.356 c 0,-0.63 0.33,-1.161 0.985,-1.594 0.313,-0.228 0.673,-0.334 1.08,-0.334 0.562,0 1.079,0.235 1.547,0.702 0.942,1.067 1.953,1.868 3.033,2.399 1.079,0.531 2.369,0.792 3.872,0.792 1.191,-0.025 2.236,-0.3 3.146,-0.817 0.908,-0.515 1.362,-1.354 1.362,-2.511 0,-1.063 -0.463,-1.881 -1.389,-2.442 -0.921,-0.565 -2.274,-1.079 -4.062,-1.551 -1.748,-0.467 -3.204,-0.96 -4.365,-1.482 -1.156,-0.514 -2.138,-1.264 -2.935,-2.253 -0.797,-0.981 -1.199,-2.275 -1.199,-3.873 0,-1.405 0.402,-2.639 1.199,-3.706 0.797,-1.063 1.863,-1.894 3.196,-2.489 1.328,-0.591 2.775,-0.891 4.344,-0.891 1.499,0 2.995,0.282 4.481,0.84 1.49,0.569 2.699,1.431 3.642,2.587 0.372,0.441 0.561,0.892 0.561,1.362 0,0.502 -0.248,0.981 -0.749,1.453 -0.317,0.287 -0.707,0.424 -1.174,0.424 -0.565,0 -1.02,-0.185 -1.362,-0.562 -0.66,-0.749 -1.466,-1.332 -2.417,-1.739 -0.959,-0.407 -2.014,-0.612 -3.17,-0.612 -1.191,0 -2.202,0.244 -3.029,0.732 -0.835,0.484 -1.246,1.303 -1.246,2.463 0.034,1.093 0.505,1.907 1.431,2.438 0.926,0.531 2.339,1.054 4.25,1.551 1.662,0.441 3.037,0.908 4.134,1.413 1.097,0.497 2.019,1.243 2.772,2.232 0.749,0.981 1.122,2.275 1.122,3.873 0,1.47 -0.42,2.742 -1.268,3.825 -0.845,1.076 -1.945,1.902 -3.308,2.489 -1.362,0.574 -2.811,0.87 -4.345,0.87 -1.971,0 -3.795,-0.352 -5.466,-1.037 -1.68,-0.686 -3.094,-1.786 -4.25,-3.29 -0.282,-0.43 -0.423,-0.854 -0.423,-1.262 z"
       id="path63"
       inkscape:connector-curvature="0"
       style="fill:#d98538" /><path
       d="m 70.747,175.237 0,13.992 c 0,1.563 0.702,2.344 2.116,2.344 0.214,0 0.515,-0.052 0.892,-0.163 0.377,-0.111 0.672,-0.163 0.891,-0.163 0.407,0 0.75,0.172 1.037,0.515 0.273,0.347 0.42,0.784 0.42,1.319 0,0.655 -0.377,1.217 -1.132,1.684 -0.745,0.472 -1.593,0.707 -2.531,0.707 -1.032,0 -1.979,-0.111 -2.841,-0.325 -0.861,-0.219 -1.628,-0.78 -2.305,-1.667 -0.668,-0.892 -1.007,-2.249 -1.007,-4.062 l 0,-14.181 -2.721,0 c -0.6,0 -1.088,-0.192 -1.482,-0.587 -0.394,-0.39 -0.582,-0.887 -0.582,-1.482 0,-0.591 0.188,-1.075 0.582,-1.452 0.395,-0.381 0.883,-0.569 1.482,-0.569 l 2.721,0 0,-3.941 c 0,-0.621 0.21,-1.152 0.634,-1.594 0.425,-0.441 0.964,-0.66 1.62,-0.66 0.625,0 1.152,0.219 1.572,0.66 0.424,0.441 0.634,0.973 0.634,1.594 l 0,3.941 3.898,0 c 0.591,0 1.088,0.201 1.482,0.591 0.386,0.395 0.583,0.887 0.583,1.482 0,0.595 -0.197,1.075 -0.583,1.452 -0.395,0.377 -0.892,0.565 -1.482,0.565 l -3.898,0 z"
       id="path65"
       inkscape:connector-curvature="0"
       style="fill:#d98538" /><path
       d="m 131.368,180.683 0,12.54 c 0,0.651 -0.206,1.195 -0.613,1.619 -0.402,0.416 -0.942,0.63 -1.594,0.63 -0.659,0 -1.203,-0.219 -1.623,-0.655 -0.425,-0.438 -0.63,-0.969 -0.63,-1.594 l 0,-12.493 c 0,-4.1 -1.727,-6.147 -5.167,-6.147 -1.217,0 -2.326,0.274 -3.312,0.814 -0.985,0.552 -1.752,1.293 -2.301,2.231 -0.548,0.938 -0.822,1.976 -0.822,3.102 l 0,12.493 c 0,0.625 -0.206,1.156 -0.63,1.594 -0.424,0.437 -0.968,0.655 -1.624,0.655 -0.651,0 -1.19,-0.214 -1.598,-0.63 -0.402,-0.424 -0.612,-0.968 -0.612,-1.619 l 0,-12.54 c 0,-1.847 -0.386,-3.329 -1.17,-4.438 -0.784,-1.109 -2.078,-1.662 -3.898,-1.662 -1.847,0 -3.367,0.583 -4.575,1.752 -1.209,1.179 -1.809,2.627 -1.809,4.349 l 0,12.54 c 0,0.625 -0.214,1.156 -0.634,1.594 -0.42,0.437 -0.964,0.655 -1.619,0.655 -0.66,0 -1.191,-0.214 -1.599,-0.63 -0.406,-0.424 -0.608,-0.968 -0.608,-1.619 l 0,-20.102 c 0,-0.625 0.21,-1.156 0.63,-1.594 0.429,-0.437 0.951,-0.66 1.577,-0.66 0.655,0 1.199,0.224 1.619,0.66 0.42,0.438 0.634,0.969 0.634,1.594 l 0,1.641 c 0.814,-1.217 1.902,-2.24 3.265,-3.071 1.358,-0.827 2.836,-1.247 4.438,-1.247 3.877,0 6.4,1.723 7.562,5.167 0.686,-1.315 1.829,-2.502 3.419,-3.568 1.603,-1.059 3.29,-1.599 5.076,-1.599 5.472,-0.002 8.218,3.413 8.218,10.238 z"
       id="path67"
       inkscape:connector-curvature="0"
       style="fill:#d98538" /><path
       d="m 158.928,183.664 c -0.441,0.391 -0.955,0.587 -1.551,0.587 l -16.524,0 c 0.219,2.284 1.089,4.113 2.605,5.493 1.512,1.379 3.367,2.064 5.564,2.064 1.5,0 2.721,-0.219 3.659,-0.655 0.938,-0.438 1.773,-1.003 2.489,-1.688 0.476,-0.282 0.921,-0.424 1.366,-0.424 0.527,0 0.973,0.188 1.332,0.562 0.36,0.377 0.545,0.818 0.545,1.315 0,0.655 -0.321,1.251 -0.938,1.782 -0.913,0.912 -2.116,1.679 -3.616,2.3 -1.508,0.63 -3.042,0.947 -4.605,0.947 -2.531,0 -4.764,-0.536 -6.691,-1.603 -1.927,-1.067 -3.415,-2.554 -4.456,-4.455 -1.054,-1.911 -1.576,-4.074 -1.576,-6.482 0,-2.63 0.54,-4.939 1.624,-6.928 1.075,-1.987 2.506,-3.513 4.267,-4.575 1.773,-1.066 3.672,-1.598 5.706,-1.598 2.006,0 3.882,0.514 5.639,1.551 1.752,1.028 3.161,2.455 4.224,4.271 1.067,1.816 1.615,3.852 1.646,6.104 -0.033,0.563 -0.273,1.042 -0.709,1.432 z m -15.351,-7.745 c -1.285,0.985 -2.129,2.511 -2.54,4.575 l 13.854,0 0,-0.377 c -0.162,-1.658 -0.903,-3.021 -2.231,-4.083 -1.328,-1.066 -2.836,-1.598 -4.533,-1.598 -1.747,0.001 -3.269,0.493 -4.55,1.483 z"
       id="path69"
       inkscape:connector-curvature="0"
       style="fill:#d98538" /><path
       d="m 186.557,171.172 c 0.424,0.424 0.638,0.981 0.638,1.671 l 0,20.38 c 0,0.625 -0.214,1.156 -0.638,1.594 -0.42,0.437 -0.96,0.655 -1.62,0.655 -0.655,0 -1.187,-0.214 -1.594,-0.63 -0.406,-0.424 -0.608,-0.968 -0.608,-1.619 l 0,-1.226 c -0.813,1.101 -1.928,2.026 -3.337,2.793 -1.409,0.771 -2.926,1.157 -4.554,1.157 -2.13,0 -4.062,-0.553 -5.801,-1.649 -1.735,-1.093 -3.094,-2.622 -4.083,-4.575 -0.985,-1.958 -1.479,-4.16 -1.479,-6.598 0,-2.442 0.493,-4.645 1.479,-6.603 0.989,-1.953 2.344,-3.475 4.062,-4.575 1.727,-1.093 3.611,-1.641 5.685,-1.641 1.658,0 3.196,0.343 4.623,1.028 1.427,0.693 2.562,1.567 3.405,2.635 l 0,-1.127 c 0,-0.66 0.202,-1.208 0.608,-1.646 0.407,-0.437 0.938,-0.655 1.594,-0.655 0.66,0.001 1.2,0.211 1.62,0.631 z m -7.275,19.51 c 1.144,-0.749 2.034,-1.782 2.677,-3.102 0.639,-1.307 0.96,-2.793 0.96,-4.455 0,-1.628 -0.321,-3.098 -0.96,-4.413 -0.643,-1.319 -1.533,-2.36 -2.677,-3.123 -1.145,-0.767 -2.451,-1.152 -3.925,-1.152 -1.465,0 -2.776,0.377 -3.92,1.127 -1.136,0.749 -2.03,1.786 -2.669,3.102 -0.647,1.315 -0.969,2.802 -0.969,4.46 0,1.662 0.321,3.148 0.969,4.455 0.639,1.319 1.533,2.353 2.669,3.102 1.144,0.75 2.455,1.127 3.92,1.127 1.474,-0.001 2.781,-0.378 3.925,-1.128 z"
       id="path71"
       inkscape:connector-curvature="0"
       style="fill:#d98538" /><path
       d="m 197.99,194.816 c -0.437,0.437 -0.964,0.655 -1.594,0.655 -0.629,0 -1.147,-0.219 -1.572,-0.655 -0.424,-0.438 -0.634,-0.969 -0.634,-1.594 l 0,-30.242 c 0,-0.625 0.215,-1.156 0.655,-1.598 0.441,-0.433 0.969,-0.655 1.599,-0.655 0.625,0 1.152,0.223 1.576,0.655 0.42,0.441 0.63,0.973 0.63,1.598 l 0,30.242 c 0,0.626 -0.218,1.157 -0.66,1.594 z"
       id="path73"
       inkscape:connector-curvature="0"
       style="fill:#d98538" /></g></svg>